<svg width="10" height="18" viewBox="0 0 10 18" fill="none" xmlns="http://www.w3.org/2000/svg">
<g clip-path="url(#clip0)">
<path d="M9.73603 17.7406C10.0889 17.3925 10.0889 16.8295 9.73603 16.4814L2.15345 8.9999L9.73603 1.51842C10.0889 1.17027 10.0889 0.607306 9.73603 0.259158C9.38318 -0.0889902 8.81261 -0.0889902 8.45976 0.259158L0.261556 8.34805C0.088884 8.51842 -0.00871411 8.75546 -0.00120584 8.99249C-0.00120584 8.9999 -0.00120584 9.00731 -0.00120584 9.01472C-0.00120585 9.25175 0.0963913 9.48138 0.261556 9.64434L8.45975 17.7406C8.81261 18.0888 9.38318 18.0888 9.73603 17.7406Z" fill="#1b1b1b"/>
</g>
<defs>
<clipPath id="clip0">
<rect width="18" height="10" fill="white" transform="matrix(-4.37114e-08 1 1 4.37114e-08 0 0)"/>
</clipPath>
</defs>
</svg>
