<svg width="18" height="10" viewBox="0 0 18 10" fill="none" xmlns="http://www.w3.org/2000/svg">
<g clip-path="url(#clip0)">
<path d="M17.7406 0.263663C17.3924 -0.0891898 16.8295 -0.0891898 16.4813 0.263663L8.99984 7.84625L1.51836 0.263663C1.17021 -0.0891898 0.607245 -0.0891898 0.259097 0.263663C-0.0890512 0.616516 -0.0890512 1.18709 0.259097 1.53994L8.34799 9.73814C8.51836 9.91081 8.7554 10.0084 8.99243 10.0009C8.99984 10.0009 9.00725 10.0009 9.01466 10.0009C9.25169 10.0009 9.48132 9.9033 9.64428 9.73814L17.7406 1.53994C18.0887 1.18709 18.0887 0.616516 17.7406 0.263663Z" fill="#2B69B5"/>
</g>
<defs>
<clipPath id="clip0">
<rect width="18" height="10" fill="white" transform="matrix(1 0 0 -1 0 10)"/>
</clipPath>
</defs>
</svg>
