<svg width="10" height="18" viewBox="0 0 10 18" fill="none" xmlns="http://www.w3.org/2000/svg">
<g clip-path="url(#clip0)">
<path d="M0.263971 0.259356C-0.0888823 0.607504 -0.0888824 1.17047 0.26397 1.51862L7.84655 9.0001L0.263968 16.4816C-0.0888845 16.8297 -0.0888845 17.3927 0.263968 17.7408C0.616821 18.089 1.18739 18.089 1.54024 17.7408L9.73844 9.65195C9.91112 9.48158 10.0087 9.24454 10.0012 9.00751C10.0012 9.0001 10.0012 8.99269 10.0012 8.98529C10.0012 8.74825 9.90361 8.51862 9.73844 8.35566L1.54025 0.259356C1.18739 -0.0887926 0.616824 -0.0887927 0.263971 0.259356Z" fill="#15264C"/>
</g>
<defs>
<clipPath id="clip0">
<rect width="18" height="10" fill="white" transform="matrix(1.31134e-07 -1 -1 -1.31134e-07 10 18)"/>
</clipPath>
</defs>
</svg>
