<?xml version="1.0" encoding="utf-8"?>
<!-- Generator: Adobe Illustrator 17.1.0, SVG Export Plug-In . SVG Version: 6.00 Build 0)  -->
<!DOCTYPE svg PUBLIC "-//W3C//DTD SVG 1.1//EN" "http://www.w3.org/Graphics/SVG/1.1/DTD/svg11.dtd">
<svg version="1.1" id="Layer_1" xmlns="http://www.w3.org/2000/svg" xmlns:xlink="http://www.w3.org/1999/xlink" x="0px" y="0px" width="55px"
	 viewBox="0 0 55 66.2" enable-background="new 0 0 55 66.2" xml:space="preserve">
<path fill="#FF6600" d="M32.8,9.9c0,0.6,0,1.2,0,1.7c2.4,0.8,4.7,1.6,7.2,2.5c-0.2-2.1,0.3-4.1,2-5.5c1.1-0.9,2.4-1.4,3.8-1.4
	c2.6,0.1,5.3,1.9,5.7,5.1c0.3,2.7-1.2,5.5-4.9,6.5C54.5,27.2,57,37,53.3,48c-2.4,7.2-7.3,12.5-14.2,15.6
	C25.3,69.9,9.4,64.3,2.7,50.5c-2.5-5.2-3.2-10.6-2.3-16.3c0.9-5.6,3.4-10.5,7.4-14.6c4-4.1,8.8-6.6,14.4-7.9c0-0.7,0-1.2,0-1.8
	c-0.5,0-0.9,0-1.2-0.1c-1.2-0.1-1.7-0.6-1.7-1.9c0-2.1,0-4.1,0-6.2c0-1.2,0.6-1.8,1.8-1.8c1.2,0,2.5,0,3.8,0c2.9,0,5.9,0,8.8,0
	c1.9,0,2.3,0.5,2.4,2.4c0,1.7,0,3.5,0,5.2c0,1.7-0.5,2.2-2.2,2.3C33.4,9.9,33.2,9.9,32.8,9.9z M27.4,62.7
	c13.1,0.2,23.9-10.5,24.1-23.5c0.2-13.8-10.9-23.6-22.2-24.3c-15.2-1-25.7,11.3-25.8,23.6C3.3,52,14.5,62.9,27.4,62.7z M32.3,6.3
	c0-1,0-1.9,0-2.8c-3.3,0-6.4,0-9.6,0c0,1,0,1.9,0,2.8C25.9,6.3,29.1,6.3,32.3,6.3z M48.1,13c0-1.2-1.2-2.3-2.4-2.3
	c-1.2,0-2.3,1.1-2.3,2.3c0,1.3,1,2.3,2.3,2.2C47,15.2,48.1,14.2,48.1,13z M29.2,9.9c-1.2,0-2.3,0-3.5,0c0,0.5,0.1,0.9,0.1,1.3
	c1.2,0,2.3,0,3.4,0C29.2,10.8,29.2,10.4,29.2,9.9z"/>
<path fill="#FF6600" d="M48.9,38.8c0,11.7-9.5,21.4-21.4,21.4C15.6,60.1,6.1,50.8,6.1,38.8c0-12.3,10-21.4,21.4-21.5C39.1,17.3,49,26.9,48.9,38.8z
	 M27.5,20.8c-9.6-0.2-17.9,7.8-18,17.8c-0.1,10.1,8.1,18,17.9,18.1c9.9,0,18-8,18-17.9C45.5,28.8,37.2,20.6,27.5,20.8z"/>
<path fill="#FF6600" d="M22.2,36.6c-1.4-1.2-2.9-2.4-4.3-3.6c-0.6-0.5-1.2-1-1.8-1.5c-1-0.9-1.1-1.7-0.4-2.6c0.6-0.7,1.8-0.7,2.7,0
	c1.1,0.9,2.3,1.9,3.4,2.9c0.7,0.6,1.5,1.1,2.2,1.7c0.6,0.5,1.1,0.5,1.7,0.3c1-0.4,2-0.6,3.1-0.4c2.1,0.4,4.3,2.9,4.3,5.5
	c0,3.1-2.2,5.2-5,5.5c-3,0.3-6.1-2.3-5.9-5.4C22.1,38.2,22.1,37.5,22.2,36.6z M29.5,38.9c0-1.2-0.9-2.3-2-2.2c-1,0-2,1.2-2,2.2
	c0,0.9,1,1.9,2,2C28.4,40.9,29.4,39.9,29.5,38.9z"/>
<path fill="#FF6600" d="M29.4,25.1c0,0.9-1,1.9-2,1.9c-0.9,0-1.9-1-1.9-1.9c0-1,1-1.9,1.9-1.9C28.4,23.2,29.4,24.2,29.4,25.1z"/>
<path fill="#FF6600" d="M41.2,36.7c1.1,0,1.9,1,1.9,2c-0.1,1-0.9,1.8-1.9,1.8c-1,0-2-0.9-2-1.9C39.2,37.6,40.2,36.7,41.2,36.7z"/>
<path fill="#FF6600" d="M14.3,36.7c1.1,0,1.9,0.9,1.9,1.9c0,1-0.8,1.8-1.9,1.8c-1.1,0-2-0.9-2-1.9C12.3,37.6,13.2,36.7,14.3,36.7z"/>
<path fill="#FF6600" d="M25.6,52c0-1,1-1.9,1.9-1.9c0.9,0,1.9,1,1.9,1.9c0,0.9-1,2-1.9,1.9C26.6,54,25.6,53,25.6,52z"/>
</svg>
