<?xml version="1.0" encoding="utf-8"?>
<!-- Generator: Adobe Illustrator 17.1.0, SVG Export Plug-In . SVG Version: 6.00 Build 0)  -->
<!DOCTYPE svg PUBLIC "-//W3C//DTD SVG 1.1//EN" "http://www.w3.org/Graphics/SVG/1.1/DTD/svg11.dtd">
<svg version="1.1" id="Layer_1" xmlns="http://www.w3.org/2000/svg" xmlns:xlink="http://www.w3.org/1999/xlink" x="0px" y="0px" width="64px"
	 viewBox="0 0 64 42.6" enable-background="new 0 0 64 42.6" xml:space="preserve">
<path fill="#FF6600" d="M7.3,32.1c-1.7,0-3.3,0-4.8,0c-0.3,0-0.7,0-1,0C0.6,32,0,31.4,0,30.5c0-6.8,0-11.6,0-18.4c0-1,0.7-1.7,1.7-1.7
	c1.4,0,2.9,0,4.3,0c0.4,0,0.7,0,1.2-0.1c0-0.4,0.1-0.7,0.1-1c0-2.4,0-4.7,0-7.1C7.3,0.5,7.8,0,9.6,0c1.6,0,3.2,0,4.8,0
	c1.5,0,2,0.5,2.1,2c0,0.9,0,1.7,0,2.7c0.3,0.1,0.6,0.1,0.9,0.1c0.6,0,1.1,0,1.7,0c1.7,0,2.1,0.4,2.1,2.1c0,1,0,2,0,3.1
	c0,1.7,0,2.3,0,4c0,0.4,0,0.7,0.1,1.2c7.1,0,14.2,0,21.3,0c0-0.5,0.1-0.9,0.1-1.4c0-2.5,0-4,0-6.5c0-0.3,0-0.6,0-0.9
	c0.1-1,0.6-1.5,1.6-1.5c0.8,0,1.5,0,2.3,0c0.2,0,0.4-0.1,0.8-0.1c0-0.9,0-1.8,0-2.7c0-1.4,0.6-2,2-2c1.7,0,3.5,0,5.2,0
	c1.4,0,2,0.6,2,2c0,2.4,0,4.8,0,7.2c0,0.4,0,0.7,0,1.2c1,0,1.8,0,2.7,0c0.9,0,1.8,0,2.7,0c1.2,0,2,0.7,2,2c0,4,0,7,0,11.1
	c0,2.5,0,4,0,6.5c0,1.5-0.6,2.1-2.1,2.1c-1.7,0-3.4,0-5.2,0c0,0.5-0.1,0.8-0.1,1.2c0,2.4,0,4.7,0,7.1c0,1.7-0.5,2.2-2.2,2.2
	c-1.6,0-3.3,0-4.9,0c-1.5,0-2.1-0.6-2.1-2.1c0-0.9,0-1.7,0-2.7c-0.4-0.1-0.6-0.1-0.9-0.1c-0.6,0-1.3,0-1.9,0
	c-1.3-0.1-1.8-0.6-1.8-1.9c0-2.7,0-4.4,0-7.1c0-0.4,0-0.8-0.1-1.2c-0.9-0.2-19.8-0.3-21.3-0.1c0,0.4-0.1,0.8-0.1,1.2
	c0,2.5,0,4.1,0,6.6c0,0.3,0,0.6,0,0.9c-0.1,1-0.6,1.5-1.6,1.6c-0.6,0-1.3,0-1.9,0c-0.4,0-0.7,0.1-1.2,0.1c0,1,0,1.9,0,2.8
	c0,1.4-0.5,2-2,2c-1.7,0-3.4,0-5.1,0c-1.5,0-2-0.6-2-2.1c0-2.3,0-4.6,0-6.9C7.3,33.1,7.3,32.7,7.3,32.1z M21.3,23.9
	c7.2,0,14.2,0,21.3,0c0-1.8,0-3.5,0-5.3c-7.1,0-14.2,0-21.3,0C21.3,20.4,21.3,22.1,21.3,23.9z M50.6,3.3c0,0.6,0,1,0,1.5
	c0,11.5,0,21,0,32.5c0,2.4,0.1,2.4,2.5,2c0.2-1.2,0.2-35.1-0.1-35.9C52.3,3.3,51.6,3.3,50.6,3.3z M10.7,3.2c-0.3,1.4-0.2,35.2,0,36
	c0.8,0.1,1.6,0.2,2.4-0.1c0-12.6,0-23.2,0-35.8c-0.2,0-0.4-0.1-0.6-0.1C12,3.2,11.4,3.2,10.7,3.2z M3.3,13.7c0,5.8,0,9.4,0,15.1
	c1.3,0,2.6,0,3.8,0c0.3-1.3,0.2-14.2-0.1-15.1C5.9,13.7,4.6,13.7,3.3,13.7z M60.8,28.8c0-5.8,0-9.4,0-15c-1.3-0.3-3.2-0.3-4.1,0.1
	c0,5.6,0,9.2,0,14.9C58,28.8,59.3,28.8,60.8,28.8z M17.9,34.4C18.1,32.8,18,9,17.8,8.2c-0.4,0-0.8,0-1.3,0c0,9.4,0,16.8,0,26.2
	C17,34.4,17.4,34.4,17.9,34.4z M46,8.2c-0.2,1.6-0.2,25.3,0.1,26.2c0.4,0,0.8,0,1.2,0c0-9.4,0-16.8,0-26.2C46.8,8.2,46.5,8.2,46,8.2
	z"/>
</svg>
