<?xml version="1.0" encoding="utf-8"?>
<!-- Generator: Adobe Illustrator 17.1.0, SVG Export Plug-In . SVG Version: 6.00 Build 0)  -->
<!DOCTYPE svg PUBLIC "-//W3C//DTD SVG 1.1//EN" "http://www.w3.org/Graphics/SVG/1.1/DTD/svg11.dtd">
<svg version="1.1" id="Layer_1" xmlns="http://www.w3.org/2000/svg" xmlns:xlink="http://www.w3.org/1999/xlink" x="0px" y="0px" width="60px"
	 viewBox="0 0 60.3 56.5" enable-background="new 0 0 60.3 56.5" xml:space="preserve">
<g>
	<path fill="#FF6600" stroke="#FF6600" stroke-width="0.25" stroke-miterlimit="10" d="M28.2,41.4h-3l-3.2-3.2
		c0.3-0.7,0.6-1.5,0.6-2.4c0-3.1-2.5-5.6-5.6-5.6s-5.6,2.5-5.6,5.6s2.5,5.6,5.6,5.6c0.9,0,1.7-0.2,2.4-0.6l3.8,3.8
		c0.3,0.3,0.8,0.5,1.3,0.5h3.7c1,0,1.9-0.8,1.9-1.9S29.3,41.4,28.2,41.4z M15.1,35.7c0-1,0.8-1.9,1.9-1.9c1,0,1.9,0.8,1.9,1.9
		c0,1-0.8,1.9-1.9,1.9C16,37.6,15.1,36.8,15.1,35.7z"/>
	<path fill="#FF6600" stroke="#FF6600" stroke-width="0.25" stroke-miterlimit="10" d="M56.1,45.4c0.2-0.7,0.3-1.4,0.3-2.1
		c0-4.1-2.7-7.6-6.4-8.9c5.4-10.3,6.3-23.7,6.4-27.1c2.2-2.1,3.4-4.2,3.5-4.3c0.5-0.9,0.2-2-0.7-2.6c-0.9-0.5-2-0.2-2.6,0.7
		c0,0.1-3.8,6.6-9.6,6.6c-1,0-1.9,0.8-1.9,1.9s0.8,1.9,1.9,1.9c2,0,3.8-0.5,5.4-1.3c-0.5,5.5-1.9,16.1-6.5,23.8H33.8
		c-0.9-8-7.3-14.2-15.4-14.9l-2.5-7.6h3c1,0,1.9-0.8,1.9-1.9s-0.8-1.9-1.9-1.9H7.6c-1,0-1.9,0.8-1.9,1.9s0.8,1.9,1.9,1.9h4.3
		l2.6,7.8C6.4,20.4,0.1,27.3,0.1,35.7c0,3.7,1.2,7.1,3.3,9.9c-1.9,0.9-3.3,2.8-3.3,5.1c0,3.1,2.5,5.6,5.6,5.6c2.8,0,5.1-2.1,5.5-4.8
		c1.8,0.6,3.7,1.1,5.7,1.1h30c0.7,0,1.4-0.1,2.1-0.3c0.7,2.3,2.8,4,5.4,4c3.1,0,5.6-2.5,5.6-5.6C60.1,48.2,58.4,46.1,56.1,45.4z
		 M5.7,52.6c-1,0-1.9-0.8-1.9-1.9s0.8-1.9,1.9-1.9s1.9,0.8,1.9,1.9S6.8,52.6,5.7,52.6z M17,48.9C9.8,48.9,3.9,43,3.9,35.7
		S9.8,22.6,17,22.6s13.1,5.9,13.1,13.1c0,1,0.8,1.9,1.9,1.9h15c3.1,0,5.6,2.5,5.6,5.6s-2.5,5.6-5.6,5.6H17z M54.5,52.6
		c-1,0-1.9-0.8-1.9-1.9c0,0,0,0,0-0.1c0.7-0.5,1.3-1.1,1.8-1.8c1-0.1,2,0.8,2,1.8C56.4,51.8,55.5,52.6,54.5,52.6z"/>
</g>
</svg>
