<?xml version="1.0" encoding="utf-8"?>
<!-- Generator: Adobe Illustrator 17.1.0, SVG Export Plug-In . SVG Version: 6.00 Build 0)  -->
<!DOCTYPE svg PUBLIC "-//W3C//DTD SVG 1.1//EN" "http://www.w3.org/Graphics/SVG/1.1/DTD/svg11.dtd">
<svg version="1.1" id="Layer_1" xmlns="http://www.w3.org/2000/svg" xmlns:xlink="http://www.w3.org/1999/xlink" x="0px" y="0px" width="55px"
	 viewBox="0 0 55.3 55.3" enable-background="new 0 0 55.3 55.3" xml:space="preserve">
<path fill="#FF6600" stroke="#FF6600" stroke-width="0.25" stroke-linecap="round" stroke-linejoin="round" stroke-miterlimit="10" d="
	M53.4,13.9c-0.9,0-1.7,0.8-1.7,1.7v0.6L29.3,4.3V1.8c0-0.9-0.8-1.7-1.7-1.7s-1.7,0.8-1.7,1.7v2.4L3.6,16.2v-0.6
	c0-0.9-0.8-1.7-1.7-1.7s-1.7,0.8-1.7,1.7v24.1c0,0.1,0,0.2,0,0.2c0,0.1,0,0.2,0.1,0.3c0,0.1,0.1,0.2,0.2,0.3
	c0.1,0.1,0.1,0.2,0.2,0.3c0.1,0.1,0.2,0.2,0.3,0.2c0.1,0,0.1,0.1,0.2,0.2l25.8,13.8c0,0,0,0,0.1,0c0.2,0.1,0.5,0.2,0.7,0.2
	c0.3,0,0.5-0.1,0.7-0.2c0,0,0,0,0.1,0l25.8-13.8c0.1,0,0.1-0.1,0.2-0.2c0.1-0.1,0.2-0.1,0.3-0.2c0.1-0.1,0.1-0.2,0.2-0.3
	c0.1-0.1,0.1-0.2,0.2-0.3c0-0.1,0.1-0.2,0.1-0.4c0-0.1,0-0.1,0-0.2V15.6C55.1,14.6,54.4,13.9,53.4,13.9z M3.6,28.8l22.3,11.9v9.9
	L3.6,38.6V28.8z M8.3,24.4l17.6,9.4v3L5.5,25.9L8.3,24.4z M27.6,14.1l15.7,8.4l-14,7.4v-0.6c0-0.9-0.8-1.7-1.7-1.7s-1.7,0.8-1.7,1.7
	v0.6l-14-7.4L27.6,14.1z M49.8,25.9L29.3,36.8v-3L47,24.4L49.8,25.9z M29.3,40.7l22.3-11.9v9.9L29.3,50.5V40.7z M51.7,23l-1.1-0.6
	l1.1-0.6V23z M49.8,19L47,20.5l-17.6-9.4v-3L49.8,19z M25.9,8.1v3L8.3,20.5L5.5,19L25.9,8.1z M4.6,22.5L3.6,23v-1.1L4.6,22.5z"/>
</svg>
