<?xml version="1.0" encoding="utf-8"?>
<!-- Generator: Adobe Illustrator 17.1.0, SVG Export Plug-In . SVG Version: 6.00 Build 0)  -->
<!DOCTYPE svg PUBLIC "-//W3C//DTD SVG 1.1//EN" "http://www.w3.org/Graphics/SVG/1.1/DTD/svg11.dtd">
<svg version="1.1" id="Layer_1" xmlns="http://www.w3.org/2000/svg" xmlns:xlink="http://www.w3.org/1999/xlink" x="0px" y="0px" width="55px"
	 viewBox="0 0 55.3 53.5" enable-background="new 0 0 55.3 53.5" xml:space="preserve">
<g>
	<path fill="#FF6600" stroke="#FF6600" stroke-width="0.25" stroke-miterlimit="10" d="M47.8,49.7c-1.2,0-1.7-0.3-2.4-0.8
		c-1-0.6-2.2-1.4-4.4-1.4c-2.2,0-3.4,0.8-4.4,1.4c-0.8,0.5-1.2,0.8-2.4,0.8c-1.2,0-1.6-0.3-2.4-0.8c-1-0.6-2.2-1.4-4.4-1.4
		c-2.2,0-3.4,0.8-4.4,1.4c-0.8,0.5-1.2,0.8-2.4,0.8c-1.2,0-1.6-0.3-2.4-0.8c-1-0.6-2.2-1.4-4.4-1.4c-2.2,0-3.4,0.8-4.4,1.4
		c-0.8,0.5-1.3,0.8-2.4,0.8c-1.2,0-1.6-0.3-2.4-0.8c-1-0.6-2.2-1.4-4.4-1.4v3.6c1.2,0,1.7,0.3,2.4,0.8c1,0.6,2.2,1.4,4.4,1.4
		c2.2,0,3.4-0.8,4.4-1.4c0.8-0.5,1.2-0.8,2.4-0.8c1.2,0,1.6,0.3,2.4,0.8c1,0.6,2.2,1.4,4.4,1.4c2.2,0,3.4-0.8,4.4-1.4
		c0.8-0.5,1.2-0.8,2.4-0.8c1.2,0,1.6,0.3,2.4,0.8c1,0.6,2.2,1.4,4.4,1.4c2.2,0,3.4-0.8,4.4-1.4c0.8-0.5,1.2-0.8,2.4-0.8
		c1.2,0,1.6,0.3,2.4,0.8c1,0.6,2.2,1.4,4.4,1.4c2.2,0,3.4-0.8,4.4-1.4c0.8-0.5,1.3-0.8,2.4-0.8v-3.6c-2.2,0-3.4,0.8-4.4,1.4
		C49.4,49.4,48.9,49.7,47.8,49.7L47.8,49.7z M47.8,49.7"/>
	<path fill="#FF6600" stroke="#FF6600" stroke-width="0.25" stroke-miterlimit="10" d="M55.1,21.7V11c0-6-4.8-10.9-10.8-10.9
		c-3.1,0-5.9,1.3-7.9,3.4c-2-2.1-4.9-3.4-7.9-3.4c-6,0-10.9,4.9-10.9,10.9v29.1c-0.9-0.6-2-1.1-3.9-1.1c-2.2,0-3.4,0.8-4.4,1.4
		c-0.8,0.5-1.3,0.8-2.4,0.8c-1.2,0-1.6-0.3-2.4-0.8c-1-0.6-2.2-1.4-4.4-1.4v3.6c1.2,0,1.7,0.3,2.4,0.8c1,0.6,2.2,1.4,4.4,1.4
		c2.2,0,3.4-0.8,4.4-1.4c0.8-0.5,1.2-0.8,2.4-0.8c1.2,0,1.6,0.3,2.4,0.8c1,0.6,2.2,1.4,4.4,1.4c2.2,0,3.4-0.8,4.4-1.4
		c0.8-0.5,1.2-0.8,2.4-0.8c1.2,0,1.6,0.3,2.4,0.8c1,0.6,2.2,1.4,4.4,1.4c2.2,0,3.4-0.8,4.4-1.4c0.8-0.5,1.2-0.8,2.4-0.8
		c1.2,0,1.6,0.3,2.4,0.8c1,0.6,2.2,1.4,4.4,1.4c2.2,0,3.4-0.8,4.4-1.4c0.8-0.5,1.3-0.8,2.4-0.8V39c-2.2,0-3.4,0.8-4.4,1.4
		c-0.8,0.5-1.2,0.8-2.4,0.8c-1.2,0-1.7-0.3-2.4-0.8c-1-0.6-2.2-1.4-4.4-1.4c-1.9,0-3,0.6-3.9,1.1V11c0-4,3.2-7.3,7.2-7.3
		c4,0,7.2,3.3,7.2,7.3v10.7H55.1z M33.5,41.2c-0.7-0.1-1.1-0.4-1.7-0.8c-1-0.6-2.2-1.4-4.4-1.4c-2.2,0-3.4,0.8-4.4,1.4
		c-0.6,0.4-1,0.7-1.7,0.8v-7.4h12.2V41.2z M33.5,30.2H21.3v-6.6h12.2V30.2z M33.5,11v9H21.3v-9c0-4,3.3-7.3,7.3-7.3
		c2.3,0,4.5,1.1,5.8,2.9C33.8,8,33.5,9.4,33.5,11L33.5,11z M33.5,11"/>
</g>
</svg>
