<?xml version="1.0" encoding="utf-8"?>
<!-- Generator: Adobe Illustrator 17.1.0, SVG Export Plug-In . SVG Version: 6.00 Build 0)  -->
<!DOCTYPE svg PUBLIC "-//W3C//DTD SVG 1.1//EN" "http://www.w3.org/Graphics/SVG/1.1/DTD/svg11.dtd">
<svg version="1.1" id="Layer_1" xmlns="http://www.w3.org/2000/svg" xmlns:xlink="http://www.w3.org/1999/xlink" x="0px" y="0px" width="32px" height="32px"
	 viewBox="-480 120.6 344.3 510.6" enable-background="new -480 120.6 344.3 510.6" xml:space="preserve">
<path fill="#FF6600" d="M-307.9,120.6c-95.6,0-172.1,76.5-172.1,172.1c0,26.8,11.5,57.4,24.9,91.8c15.3,32.5,34.4,68.9,53.6,101.4
	c38.3,66.9,78.4,122.4,78.4,122.4l15.3,23l15.3-23c0,0,38.2-55.5,78.4-122.4c19.1-32.5,38.3-68.9,53.6-103.3s24.9-65,24.9-91.8
	C-135.8,197.1-212.3,120.6-307.9,120.6z M-307.9,170.3c70.8,0,126.2,55.5,126.2,126.2c0,15.3-7.6,42.1-21,72.7
	c-15.3,30.6-30.6,61.2-47.8,91.8c-28.7,47.8-45.9,74.6-55.5,89.9c-11.5-15.3-28.7-42.1-55.5-89.9c-17.2-30.6-36.3-63.1-47.8-93.7
	c-13.4-30.6-21-57.4-21-72.7C-434.1,225.8-378.7,170.3-307.9,170.3z M-307.9,239.2c-30.6,0-53.5,24.9-53.5,53.6s24.9,53.5,53.5,53.5
	s53.6-24.9,53.6-53.5S-277.3,239.2-307.9,239.2z"/>
</svg>
