<svg width="180" height="28" viewBox="0 0 180 28" fill="none" xmlns="http://www.w3.org/2000/svg">
<g clip-path="url(#clip0)">
<path d="M89.4162 0C81.7784 0 75.5513 6.17838 75.5513 13.8649C75.5513 21.5027 81.7297 27.7297 89.4162 27.7297C97.054 27.7297 103.281 21.5514 103.281 13.8649C103.232 6.17838 97.054 0 89.4162 0ZM80.4162 13.8649C80.4162 8.9027 84.4054 4.91351 89.3675 4.91351C92.1405 4.91351 94.6216 6.17838 96.2756 8.17297H85.9621C83.9675 8.17297 82.3135 9.77838 82.3135 11.8216C82.3135 13.8162 83.9189 15.4703 85.9621 15.4703H91.3621H92.6756C92.9675 15.4703 93.2108 15.7135 93.2108 16.0054C93.2108 16.2973 92.9675 16.5405 92.6756 16.5405H85.0378H84.8919L82.1675 19.2649C81.0973 17.7081 80.4162 15.8595 80.4162 13.8649ZM89.4162 22.8162C86.6432 22.8162 84.1621 21.5514 82.5081 19.5568H92.8216C94.8162 19.5568 96.4702 17.9514 96.4702 15.9081C96.4702 13.9135 94.8648 12.2595 92.8216 12.2595H87.4216H86.1081C85.8162 12.2595 85.5729 12.0162 85.5729 11.7243C85.5729 11.4324 85.8162 11.1892 86.1081 11.1892H93.7459H93.8919L96.6162 8.46487C97.7351 9.97297 98.3675 11.773 98.3675 13.8162C98.3675 18.7784 94.3297 22.8162 89.4162 22.8162Z" fill="black"/>
<path d="M53.5135 8.46484H45.7784L43.4432 10.8H53.4162C53.9027 10.8 54.3405 11.1892 54.3405 11.7243C54.3405 12.2108 53.9514 12.6486 53.4162 12.6486H46.6541C44.8541 12.6486 43.3946 14.1081 43.3946 15.9081V19.1675H45.7297V15.9081C45.7297 15.4216 46.1189 14.9838 46.6541 14.9838H53.4649C55.2649 14.9838 56.7243 13.5243 56.7243 11.7243C56.773 9.9243 55.3135 8.46484 53.5135 8.46484ZM49.2324 15.7135L52.6378 19.1189H55.9459L52.5405 15.7135H49.2324ZM27.827 10.8H33.3243V8.46484H30.1622L27.827 10.8ZM37.1676 8.46484C35.3676 8.46484 33.9081 9.9243 33.9081 11.7243V19.1189H36.2432C36.2432 17.9027 36.2432 11.7243 36.2432 11.7243C36.2432 11.2378 36.6324 10.8 37.1676 10.8C37.1676 10.8 39.7946 10.8 41.7405 10.8V8.46484H37.1676ZM2.38378 15.8594C2.38378 15.8594 2.38378 14.6919 2.38378 13.573V12.6L0.048645 14.9351V15.8594C0.048645 17.6594 1.5081 19.1189 3.3081 19.1189H10.6054L12.9405 16.7838H3.3081C2.82162 16.7838 2.38378 16.3946 2.38378 15.8594ZM10.9459 8.46484H6.56756L4.23243 10.8C6.32432 10.8 10.8486 10.8 10.8486 10.8C11.3351 10.8 11.773 11.1892 11.773 11.7243C11.773 12.2108 11.3838 12.6486 10.8486 12.6486H5.64324L3.3081 14.9838H10.9459C12.7459 14.9838 14.2054 13.5243 14.2054 11.7243C14.1568 9.9243 12.6973 8.46484 10.9459 8.46484ZM26.6108 11.5784V8.46484C23.9838 10.7513 18.6811 15.4702 14.4973 19.1189H18.0486L21.7946 15.8108C22.8649 16.9297 23.9838 18.0486 25.0054 19.1189H28.2162L23.4973 14.3027L26.6108 11.5784ZM21.5027 12.2594L17.7568 8.46484H14.5459C15.373 9.34052 16.7351 10.7027 18.2919 12.2594H21.5027ZM68.8378 8.46484H61.5405L59.2054 10.8H68.8378C69.3243 10.8 69.7622 11.1892 69.7622 11.7243C69.7622 11.7243 69.7622 12.8919 69.7622 14.0108V14.9838L72.0973 12.6486V11.7243C72.0486 9.9243 70.6378 8.46484 68.8378 8.46484ZM61.3459 14.9838H66.5027L68.8378 12.6486H61.2486C59.4486 12.6486 57.9892 14.1081 57.9892 15.9081C57.9892 17.7081 59.4486 19.1675 61.2486 19.1675H65.627L67.9622 16.8324C65.8703 16.8324 61.3459 16.8324 61.3459 16.8324C60.8595 16.8324 60.4216 16.4432 60.4216 15.9081C60.4216 15.373 60.8108 14.9838 61.3459 14.9838ZM110.043 10.8H117.681L120.016 8.46484H109.946C108.146 8.46484 106.686 9.9243 106.686 11.7243C106.686 13.5243 108.146 14.9838 109.946 14.9838H115.346H116.659C117.146 14.9838 117.584 15.373 117.584 15.9081C117.584 16.3946 117.195 16.8324 116.659 16.8324H109.022L106.686 19.1675H116.757C118.557 19.1675 120.016 17.7081 120.016 15.9081C120.016 14.1081 118.557 12.6486 116.757 12.6486H111.405H110.092C109.605 12.6486 109.168 12.2594 109.168 11.7243C109.168 11.2378 109.557 10.8 110.043 10.8ZM157.476 15.7135L160.881 19.1189H164.189L160.784 15.7135H157.476ZM161.757 8.46484H154.022L151.686 10.8H161.659C162.146 10.8 162.584 11.1892 162.584 11.7243C162.584 12.2108 162.195 12.6486 161.659 12.6486H154.946C153.146 12.6486 151.686 14.1081 151.686 15.9081V19.1675H154.022V15.9081C154.022 15.4216 154.411 14.9838 154.946 14.9838H161.757C163.557 14.9838 165.016 13.5243 165.016 11.7243C165.016 9.9243 163.557 8.46484 161.757 8.46484ZM175.427 8.46484C173.627 8.46484 172.168 9.9243 172.168 11.7243V19.1189H174.503C174.503 17.9027 174.503 11.7243 174.503 11.7243C174.503 11.2378 174.892 10.8 175.427 10.8C175.427 10.8 178.054 10.8 180 10.8V8.46484H175.427ZM166.086 10.8H171.584V8.46484H168.47L166.086 10.8ZM146.384 8.46484H142.784L140.449 10.8H146.384C146.87 10.8 147.308 11.1892 147.308 11.7243V15.8594C147.308 16.3459 146.919 16.7838 146.384 16.7838H139.573C139.086 16.7838 138.649 16.3946 138.649 15.8594C138.649 15.8594 138.649 13.9135 138.649 12.6L136.314 14.9351V15.8594C136.314 17.6594 137.773 19.1189 139.573 19.1189H146.384C148.184 19.1189 149.643 17.6594 149.643 15.8594V11.6757C149.643 9.9243 148.184 8.46484 146.384 8.46484ZM132.811 8.46484H125.076L122.692 10.8H132.665C133.151 10.8 133.589 11.1892 133.589 11.7243C133.589 12.2108 133.2 12.6 132.714 12.6486H125.368C123.568 12.6486 122.108 14.1081 122.108 15.9081V19.1675L124.443 16.8324V15.9081C124.443 15.4216 124.832 14.9838 125.368 14.9838H132.811C134.611 14.9838 136.07 13.5243 136.07 11.7243C136.07 9.9243 134.611 8.46484 132.811 8.46484Z" fill="white"/>
<path d="M108.827 22.4758V22.9623H107.319V23.5947H108.73V24.0812H107.319V24.8596H108.924V25.3461H106.735V22.4758H108.827Z" fill="white"/>
<path d="M114.519 22.4758L115.005 23.4002L115.541 22.4758H116.222L115.346 23.8866L116.319 25.3461H115.541L115.005 24.3731L114.422 25.3461H113.741L114.665 23.8866L113.789 22.4758H114.519Z" fill="white"/>
<path d="M122.497 25.3461H121.865V22.9623H120.989V22.4758H123.324V22.9623H122.497V25.3461Z" fill="white"/>
<path d="M128.87 25.3461H128.286V22.4758H129.746C130.524 22.4758 130.67 23.0596 130.67 23.3029C130.67 23.6434 130.524 23.8866 130.232 23.9839C130.476 24.0812 130.573 24.1785 130.573 24.7137C130.573 25.1515 130.573 25.2488 130.719 25.2974V25.3947H130.038C129.989 25.2488 129.989 25.1029 129.989 24.811C129.989 24.4218 129.941 24.2758 129.503 24.2758H128.87V25.3461ZM128.87 23.7407H129.6C129.892 23.7407 130.086 23.6434 130.086 23.3515C130.086 23.2056 130.038 22.9623 129.649 22.9623H128.919V23.7407H128.87Z" fill="white"/>
<path d="M137.238 22.4758L138.259 25.3461H137.627L137.432 24.7623H136.362L136.168 25.3461H135.535L136.557 22.4758H137.238ZM136.508 24.2758H137.287L136.897 23.1569L136.508 24.2758Z" fill="white"/>
<path d="M149.108 23.4C149.059 23.2054 148.962 22.8649 148.476 22.8649C148.184 22.8649 147.746 23.0595 147.746 23.8865C147.746 24.4217 147.941 24.8595 148.476 24.8595C148.816 24.8595 149.059 24.6649 149.108 24.3244H149.692C149.595 24.9568 149.157 25.3946 148.427 25.3946C147.649 25.3946 147.114 24.8595 147.114 23.8865C147.114 22.8649 147.697 22.3784 148.427 22.3784C149.303 22.3784 149.643 22.9622 149.643 23.4H149.108Z" fill="white"/>
<path d="M155.335 24.8596H156.746V25.3461H154.703V22.4758H155.335V24.8596Z" fill="white"/>
<path d="M163.265 22.4758L164.287 25.3461H163.654L163.459 24.7623H162.389L162.195 25.3461H161.562L162.584 22.4758H163.265ZM162.535 24.2758H163.314L162.924 23.1569L162.535 24.2758Z" fill="white"/>
<path d="M169.686 24.4702C169.686 24.6162 169.784 24.9567 170.319 24.9567C170.611 24.9567 170.903 24.9081 170.903 24.5675C170.903 24.3243 170.708 24.2757 170.368 24.227L169.784 24.0811C169.395 23.9838 169.151 23.7405 169.151 23.3027C169.151 22.9621 169.346 22.427 170.27 22.427C171.146 22.427 171.389 23.0108 171.389 23.3513H170.805C170.805 23.2054 170.757 22.9135 170.222 22.9135C169.978 22.9135 169.735 23.0108 169.735 23.254C169.735 23.4973 169.93 23.5459 170.027 23.5459L170.708 23.7405C171.097 23.8378 171.438 23.9838 171.438 24.5189C171.438 25.3946 170.562 25.4432 170.319 25.4432C169.297 25.4432 169.103 24.8594 169.103 24.4702H169.686Z" fill="white"/>
<path d="M176.935 24.4702C176.935 24.6162 177.032 24.9567 177.568 24.9567C177.859 24.9567 178.151 24.9081 178.151 24.5675C178.151 24.3243 177.957 24.2757 177.616 24.227L177.032 24.0811C176.643 23.9838 176.4 23.7405 176.4 23.3027C176.4 22.9621 176.595 22.427 177.519 22.427C178.395 22.427 178.638 23.0108 178.638 23.3513H178.054C178.054 23.2054 178.005 22.9135 177.47 22.9135C177.227 22.9135 176.984 23.0108 176.984 23.254C176.984 23.4973 177.178 23.5459 177.276 23.5459L177.957 23.7405C178.346 23.8378 178.687 23.9838 178.687 24.5189C178.687 25.3946 177.811 25.4432 177.568 25.4432C176.497 25.4432 176.351 24.8594 176.351 24.4702H176.935Z" fill="white"/>
<path d="M0.583784 24.4702C0.583784 24.6162 0.681081 24.9567 1.21622 24.9567C1.50811 24.9567 1.8 24.9081 1.8 24.5675C1.8 24.3243 1.60541 24.2757 1.26486 24.227L0.681081 24.0811C0.291892 23.9838 0.0486487 23.7405 0.0486487 23.3027C0.0486487 22.9621 0.243243 22.427 1.16757 22.427C2.04324 22.427 2.28649 23.0108 2.28649 23.3513H1.7027C1.7027 23.2054 1.65405 22.9135 1.11892 22.9135C0.875676 22.9135 0.632432 23.0108 0.632432 23.254C0.632432 23.4973 0.827027 23.5459 0.924324 23.5459L1.60541 23.7405C1.99459 23.8378 2.33514 23.9838 2.33514 24.5189C2.33514 25.3946 1.45946 25.4432 1.21622 25.4432C0.194595 25.4432 0 24.8594 0 24.4702H0.583784Z" fill="white"/>
<path d="M7.92973 25.3459H7.34595V22.4756H8.65946C9.1946 22.4756 9.53514 22.8161 9.53514 23.3999C9.53514 23.6432 9.38919 24.3242 8.61081 24.3242H7.92973V25.3459ZM7.92973 23.8377H8.46487C8.85406 23.8377 8.9027 23.5459 8.9027 23.3999C8.9027 23.108 8.75676 23.0107 8.36757 23.0107H7.88108V23.8377H7.92973Z" fill="white"/>
<path d="M15.8594 22.427C16.2486 22.427 17.2216 22.5729 17.2216 23.9351C17.2216 25.2973 16.2 25.4432 15.8594 25.4432C15.4703 25.4432 14.4973 25.2973 14.4973 23.9351C14.4486 22.5729 15.4703 22.427 15.8594 22.427ZM15.8594 24.9081C16.2 24.9081 16.6378 24.7135 16.6378 23.8865C16.6378 23.0594 16.2 22.8648 15.8594 22.8648C15.5189 22.8648 15.0811 23.0594 15.0811 23.8865C15.0811 24.7135 15.5189 24.9081 15.8594 24.9081Z" fill="white"/>
<path d="M22.8649 25.3459H22.2811V22.4756H23.7405C24.5189 22.4756 24.6162 23.0594 24.6162 23.3026C24.6162 23.6432 24.4703 23.8864 24.1784 23.9837C24.4216 24.081 24.5189 24.1783 24.5189 24.7134C24.5189 25.1513 24.5189 25.2486 24.6649 25.2972V25.3945H23.9838C23.9351 25.2486 23.9351 25.1026 23.9351 24.8107C23.9351 24.4215 23.9351 24.2756 23.4486 24.2756H22.8649V25.3459ZM22.8649 23.7404H23.5459C23.8378 23.7404 24.0324 23.6432 24.0324 23.3513C24.0324 23.2053 23.9838 22.9621 23.5946 22.9621H22.8649V23.7404Z" fill="white"/>
<path d="M30.8919 25.3459H30.2595V22.9621H29.3838V22.4756H31.7189V22.9621H30.8919V25.3459Z" fill="white"/>
<path d="M43.3946 23.4C43.346 23.2054 43.2487 22.9135 42.7622 22.9135C42.4703 22.9135 42.0325 23.1081 42.0325 23.9351C42.0325 24.4702 42.2271 24.9081 42.7622 24.9081C43.1027 24.9081 43.346 24.7135 43.3946 24.3729H43.9784C43.8811 25.0054 43.4433 25.4432 42.7135 25.4432C41.9352 25.4432 41.4 24.9081 41.4 23.9351C41.4 22.9135 41.9838 22.427 42.7135 22.427C43.5892 22.427 43.9298 23.0108 43.9298 23.4486H43.3946V23.4Z" fill="white"/>
<path d="M48.7946 24.8594H50.2054V25.3459H48.1622V22.4756H48.7946V24.8594Z" fill="white"/>
<path d="M55.8 22.4757V24.3243C55.8 24.7135 56.0432 24.9081 56.3351 24.9081C56.7243 24.9081 56.9189 24.7135 56.9189 24.3729V22.4757H57.5027V24.3243C57.5027 25.1027 57.0648 25.3946 56.3351 25.3946C55.8486 25.3946 55.2162 25.2 55.2162 24.3243V22.427H55.8V22.4757Z" fill="white"/>
<path d="M62.5621 22.4756H63.9729C64.654 22.4756 64.8486 22.9134 64.8486 23.2053C64.8486 23.5945 64.6054 23.7405 64.5081 23.7891C64.8486 23.935 64.9459 24.1783 64.9459 24.4702C64.9459 24.7134 64.8486 25.3459 63.7784 25.3459H62.5621V22.4756ZM63.1946 23.5945H63.8756C64.1189 23.5945 64.3135 23.4972 64.3135 23.254C64.3135 23.0107 64.1675 22.9621 63.8756 22.9621H63.1946V23.5945ZM63.1946 24.8594H63.9243C64.2162 24.8594 64.4108 24.7134 64.4108 24.4215C64.4108 24.1783 64.2162 24.081 63.9729 24.081H63.1946V24.8594Z" fill="white"/>
<path d="M70.4433 24.4702C70.4433 24.6162 70.5406 24.9567 71.0757 24.9567C71.3676 24.9567 71.6595 24.9081 71.6595 24.5675C71.6595 24.3243 71.4649 24.2757 71.1244 24.227L70.5406 24.0811C70.1514 23.9838 69.9081 23.7405 69.9081 23.3027C69.9081 22.9621 70.1027 22.427 71.0271 22.427C71.9027 22.427 72.146 23.0108 72.146 23.3513H71.5622C71.5622 23.2054 71.5135 22.9135 70.9784 22.9135C70.7352 22.9135 70.4919 23.0108 70.4919 23.254C70.4919 23.4973 70.6865 23.5459 70.7838 23.5459L71.4649 23.7405C71.8541 23.8378 72.1946 23.9838 72.1946 24.5189C72.1946 25.3946 71.319 25.4432 71.0757 25.4432C70.0541 25.4432 69.8595 24.8594 69.8595 24.4702H70.4433Z" fill="white"/>
</g>
<defs>
<clipPath id="clip0">
<rect width="180" height="27.6811" fill="white"/>
</clipPath>
</defs>
</svg>
