<svg id="8526" viewBox="0 0 800 200" xmlns="http://www.w3.org/2000/svg" xmlns:xlink="http://www.w3.org/1999/xlink"><g transform="matrix(1,0,0,1,0,0)"><g id="8526" opacity="1" style="mix-blend-mode:normal"><g><g><g transform="matrix(1,0,0,1,0,0)"><g id="8528" opacity="1" style="mix-blend-mode:normal"><g><defs><clipPath id="8528_clipPath" x="-50%" y="-50%" width="200%" height="200%"><path d="M0,200v-200h800v200z" fill="white" clip-rule="nonzero"></path></clipPath></defs><g clip-path="url(#8528_clipPath)"><g transform="matrix(1,0,0,1,27,81)"><g id="8487" opacity="1" style="mix-blend-mode:normal"><g><defs><clipPath id="8487_clipPath" x="-50%" y="-50%" width="200%" height="200%"><path d="M0,72v-72h755v72z" fill="white" clip-rule="nonzero"></path></clipPath></defs><g clip-path="url(#8487_clipPath)"><g transform="matrix(1,0,0,1,447.345,0.2509)"><g id="8488" opacity="1" style="mix-blend-mode:normal"><g><g><path id="8488_fill_path" d="M0,13.67975c0,4.0318 2.01601,8.3517 5.08801,10.7516c3.84,2.9759 6.14399,3.1679 12.67099,3.1679h23.616c1.439,0 2.30299,0.096 3.16699,0.864c1.536,1.4399 1.824,3.6478 0.384,5.1838c-0.768,0.768 -1.056,1.152 -2.496,1.248c-5.567,0.1919 -16.415,0 -22.367,0c-2.4,0 -4.89599,0 -7.29599,0c-3.071,0 -2.015,-0.384 -4.991,2.4959c-1.248,1.2479 -2.40001,2.3999 -3.64801,3.6478c-0.864,0.864 -3.36,2.9759 -3.552,3.9359c11.52,0 23.135,0 34.655,0c7.007,0 10.75101,0.576 15.07101,-2.3999c7.968,-5.2798 7.968,-16.7034 1.056,-22.0793c-3.456,-2.6879 -6.432,-3.1679 -12.383,-3.1679h-23.328c-3.36,0 -4.703,-0.7679 -4.703,-4.2238c0,-2.2079 2.30299,-3.0719 4.22299,-3.0719h29.27899c1.824,0 1.82403,0.288 2.78403,-0.76798l5.664,-5.47182c0.96,-0.95996 2.87997,-2.68791 3.55197,-3.74387c-11.52,0 -23.135,0 -34.655,0c-7.2,0 -15.359,-1.05596 -19.487,6.71977c-1.056,1.91994 -1.91998,4.4159 -1.91998,6.7198z" fill-rule="evenodd" fill="rgb(55, 52, 53)" fill-opacity="1" style="mix-blend-mode:NORMAL"></path></g></g></g></g><g transform="matrix(1,0,0,1,635.978,0.587)"><g id="8489" opacity="1" style="mix-blend-mode:normal"><g><g><path id="8489_fill_path" d="M0,9.79169h42.43097c3.36,0.384 4.12803,4.7998 1.72803,6.6238c-1.536,1.1519 -8.73602,0.6719 -10.84802,0.6719c-5.183,0 -10.36703,0 -15.55103,0c-5.952,0 -8.83197,0.288 -12.38397,2.9759c-2.592,1.92 -5.28003,5.8558 -5.28003,10.2717v14.3995h9.888v-13.1516c0,-1.8239 0.76804,-3.0719 1.92004,-3.7438c1.536,-0.864 14.20799,-0.48 16.51099,-0.48c3.744,0 7.584,0 11.328,0c4.512,0 6.52797,-0.192 9.50397,-1.824c5.952,-3.3598 9.311,-11.4236 4.896,-19.19931c-1.92,-3.35989 -6.528,-6.33578 -10.56,-6.33578h-33.21497c-0.768,0 -9.79203,9.40768 -10.17603,9.88769z" fill-rule="evenodd" fill="rgb(55, 52, 53)" fill-opacity="1" style="mix-blend-mode:NORMAL"></path></g></g></g></g><g transform="matrix(1,0,0,1,182.106,0.587)"><g id="8490" opacity="1" style="mix-blend-mode:normal"><g><g><path id="8490_fill_path" d="M0,9.79169c2.208,0 41.662,-0.192 42.814,0.096c3.072,0.7679 3.64801,4.7998 1.34401,6.5278c-0.96,0.6719 -1.53601,0.6719 -3.07201,0.6719h-23.327c-6.048,0 -8.73501,0.288 -12.38301,2.9759c-2.592,1.92 -5.28,5.7598 -5.28,10.2717v14.3995h9.88701v-13.1516c0,-1.8239 0.576,-2.8799 1.728,-3.6478c1.248,-0.768 3.168,-0.576 5.088,-0.576h22.65601c6.719,0 11.903,-1.152 15.071,-7.5838c2.112,-4.1278 2.208,-9.1197 -0.384,-13.24752c-0.864,-1.43995 -1.44,-1.91993 -2.592,-3.07189c-1.536,-1.53595 -4.89601,-3.45588 -7.87201,-3.45588h-33.50299c-0.767,0 -9.791,9.40768 -10.175,9.88769z" fill-rule="evenodd" fill="rgb(55, 52, 53)" fill-opacity="1" style="mix-blend-mode:NORMAL"></path></g></g></g></g><g transform="matrix(1,0,0,1,511.7558,0.395)"><g id="8491" opacity="1" style="mix-blend-mode:normal"><g><g><path id="8491_fill_path" d="M2.7872,9.98368h40.12598c1.92,0 4.60798,-0.192 5.37598,2.6879c0.576,2.1119 -0.768,4.3198 -2.784,4.6078h-24.28699c-6.528,0 -9.6,-0.384 -14.112,1.92c-8.927,4.7998 -6.91101,15.9354 -6.91101,25.3431c1.056,-0.288 7.10302,-6.8158 8.44702,-8.0637c1.632,-1.632 1.72797,-0.96 1.72797,-3.9359c-0.096,-5.0878 1.63202,-5.1838 5.85602,-5.1838h22.367c6.624,0 12.67203,0.672 17.28003,-5.1838c7.488,-9.4077 -0.09604,-22.17528 -9.69604,-22.17528h-33.21497c-0.768,0 -9.79099,9.40768 -10.17499,9.88768z" fill-rule="evenodd" fill="rgb(55, 52, 53)" fill-opacity="1" style="mix-blend-mode:NORMAL"></path></g></g></g></g><g transform="matrix(1,0,0,1,571.371,0.395)"><g id="8492" opacity="1" style="mix-blend-mode:normal"><g><g><path id="8492_fill_path" d="M17.66498,9.98368c4.128,0 21.69498,-0.288 24.95898,0c2.688,0.192 3.552,2.4959 3.552,4.9918v15.3595c0,2.2079 -1.24798,4.5118 -3.26398,4.5118h-29.66302c-3.744,0 -3.07202,-5.3758 -3.07202,-7.1037c0,-3.3599 0,-6.7198 0,-10.1757c-1.056,0.288 -1.91999,1.536 -2.68799,2.3039c-0.959,0.96 -7.487,7.1038 -7.487,7.8718c0,3.6479 -0.09597,5.0878 1.05603,8.5437c1.824,5.3758 7.48696,8.6397 13.34296,8.6397h27.83905c7.776,0 13.91998,-6.5278 13.91998,-13.1516v-18.1433c0,-4.41589 -2.30399,-8.25576 -4.79999,-10.27169c-2.976,-2.59192 -6.24004,-3.35989 -11.71204,-3.35989h-11.80701c-0.768,0 -6.71999,6.33579 -7.67999,7.39175c-0.768,0.76797 -2.11196,1.72794 -2.39996,2.78393z" fill-rule="evenodd" fill="rgb(55, 52, 53)" fill-opacity="1" style="mix-blend-mode:NORMAL"></path></g></g></g></g><g transform="matrix(1,0,0,1,60.7659,0.491)"><g id="8493" opacity="1" style="mix-blend-mode:normal"><g><g><path id="8493_fill_path" d="M0.192,44.83047h13.4396c1.6319,0 1.3439,0.288 3.7438,-1.9199c0.576,-0.576 0.864,-0.864 1.44,-1.344l11.8076,-10.3676c1.152,0.288 4.1279,3.8398 5.0878,4.9918c2.112,2.3999 4.3203,4.0319 6.1443,6.3358c2.303,2.8799 2.591,2.3039 5.471,2.3039c3.456,0 6.912,0 10.368,0c-1.536,-2.2079 -10.848,-10.9436 -14.592,-15.1675c-1.343,-1.5359 -3.93539,-3.5519 -4.99139,-5.0878l11.1354,-9.8877c1.824,-1.6319 1.824,-1.4399 1.824,-2.8799c0,-0.7679 0,-1.6319 0,-2.39989c0,-3.16789 0,-6.23979 0,-9.40768c-1.056,0.28799 -2.496,2.01593 -3.264,2.59191l-3.168,2.68791c-1.92,1.91993 -7.3913,6.33575 -9.5993,8.35175c-3.7438,3.5518 -11.4236,9.7916 -14.3035,12.5755c-3.4559,3.3599 -12.86349,10.8477 -15.93539,14.0156c-0.672,0.6719 -1.056,0.7679 -1.632,1.4399c-1.0559,1.056 -2.3999,1.92 -3.1679,2.9759z" fill-rule="evenodd" fill="rgb(55, 52, 53)" fill-opacity="1" style="mix-blend-mode:NORMAL"></path></g></g></g></g><g transform="matrix(1,0,0,1,243.0327,17.6744)"><g id="8494" opacity="1" style="mix-blend-mode:normal"><g><g><path id="8494_fill_path" d="M14.23833,27.6471h17.47202c0.768,0 2.11199,-1.7279 2.68799,-2.3039c1.152,-1.152 7.199,-6.8158 7.487,-7.8718h-26.207c-1.632,0 -2.688,0.192 -3.64799,-0.5759c-2.688,-1.92 -1.53599,-6.1438 1.34401,-6.7198c1.152,-0.192 18.14399,0 21.40799,0c1.44,0 1.34399,-0.288 2.01599,-1.056c1.056,-1.0559 2.01501,-2.0159 3.07101,-3.0719l4.608,-4.6078c0.384,-0.384 1.824,-1.44 0.384,-1.44h-29.47101c-8.351,0 -14.68701,4.3199 -15.35901,13.3436c-0.288,3.4559 1.44,7.6797 3.936,10.1756c2.592,2.592 6.431,4.0319 10.367,4.0319z" fill-rule="evenodd" fill="rgb(55, 52, 53)" fill-opacity="1" style="mix-blend-mode:NORMAL"></path></g></g></g></g><g transform="matrix(1,0,0,1,13.9195,0.683)"><g id="8495" opacity="1" style="mix-blend-mode:normal"><g><g><path id="8495_fill_path" d="M3.8399,9.69569h25.9191c1.92,0 3.4559,-0.288 4.7999,1.6319c1.5359,2.208 0.1919,5.0879 -1.824,5.6638c-1.0559,0.288 -18.4314,0.096 -21.4073,0.096c-1.3439,0 -1.5359,0.096 -2.3039,0.768c-1.3439,1.248 -8.7357,8.3517 -9.0237,9.4077c9.6957,0 19.2954,0 28.991,0c6.1438,0 7.8718,-0.384 11.5197,-3.0719c2.3039,-1.7279 4.99181,-5.6638 4.99181,-9.5997c0,-4.5118 -0.57601,-7.29573 -3.93591,-10.65562c-2.0159,-2.01593 -5.2798,-3.93587 -8.3517,-3.93587h-19.5833c-0.768,0 -2.112,1.72795 -2.6879,2.30393l-4.9919,4.99183c-0.768,0.76797 -2.0159,1.63194 -2.3039,2.68793z" fill-rule="evenodd" fill="rgb(55, 52, 53)" fill-opacity="1" style="mix-blend-mode:NORMAL"></path></g></g></g></g><g transform="matrix(1,0,0,1,721.8,0.299)"><g id="8496" opacity="1" style="mix-blend-mode:normal"><g><g><path id="8496_fill_path" d="M0,13.91949v31.103h9.40698c0.864,0 0.76801,-0.768 0.76801,-1.632v-26.6871c0,-1.5359 -0.19197,-3.4558 0.38403,-4.6078c0.48,-0.96 1.72801,-2.0159 2.97601,-2.0159h19.58398v-9.40771c0,-0.57598 -0.192,-0.67198 -0.672,-0.67198h-16.03198c-6.816,0 -12.28803,2.11193 -14.87903,7.77574c-0.768,1.63194 -1.44,3.74385 -1.44,6.14375z" fill-rule="evenodd" fill="rgb(55, 52, 53)" fill-opacity="1" style="mix-blend-mode:NORMAL"></path></g></g></g></g><g transform="matrix(1,0,0,1,142.171,0.395)"><g id="8497" opacity="1" style="mix-blend-mode:normal"><g><g><path id="8497_fill_path" d="M0.09599,12.86358v32.0629h9.888v-31.1029c0,-2.112 1.632,-3.7439 3.744,-3.7439h19.295v-9.4077c0,-0.57598 -0.192,-0.67198 -0.672,-0.67198h-15.839c-5.088,0 -8.64,0.76797 -11.52,3.16789c-2.304,1.91994 -4.99199,5.66381 -4.99199,9.79169z" fill-rule="evenodd" fill="rgb(55, 52, 53)" fill-opacity="1" style="mix-blend-mode:NORMAL"></path></g></g></g></g><g transform="matrix(1,0,0,1,0.2844,17.9624)"><g id="8498" opacity="1" style="mix-blend-mode:normal"><g><g><path id="8498_fill_path" d="M0.00356,9.8877c0,5.3758 -0.28799,9.5036 4.31985,13.6315c2.59192,2.3999 5.66377,3.8399 9.59967,3.8399h29.951c0.768,0 6.7198,-6.3358 7.6797,-7.3918c0.768,-0.7679 2.112,-1.7279 2.4,-2.7839c-1.824,0 -40.5107,0.288 -41.7586,-0.192c-0.864,-0.288 -1.632,-1.1519 -2.016,-2.0159c-0.76794,-1.8239 -0.288,-11.9996 -0.288,-14.9755c-1.05592,0.288 -6.43174,6.0478 -7.5837,7.2958c-0.47998,0.4799 -2.30392,1.9199 -2.30392,2.6879z" fill-rule="evenodd" fill="rgb(55, 52, 53)" fill-opacity="1" style="mix-blend-mode:NORMAL"></path></g></g></g></g><g transform="matrix(1,0,0,1,248.248,0.491)"><g id="8499" opacity="1" style="mix-blend-mode:normal"><g><g><path id="8499_fill_path" d="M0.09599,9.88767h38.20599c1.248,0 2.592,-0.096 3.552,0.288c0.864,0.384 1.63202,0.96 2.01602,2.0159c0.96,2.3999 0.384,11.7116 0.384,15.1675c1.056,-0.672 5.95198,-5.8558 7.48798,-7.3917c2.88,-2.88 2.40002,-1.344 2.40002,-6.5278c0,-7.29578 -6.43202,-13.43957 -12.28802,-13.43957h-31.871c-0.768,0 -2.11199,1.72794 -2.68799,2.30392c-0.864,0.86397 -1.632,1.63194 -2.496,2.49592c-0.864,0.86397 -1.631,1.63194 -2.495,2.49591c-0.768,0.76798 -2.016,1.63195 -2.304,2.68792z" fill-rule="evenodd" fill="rgb(55, 52, 53)" fill-opacity="1" style="mix-blend-mode:NORMAL"></path></g></g></g></g><g transform="matrix(1,0,0,1,60.8619,0.491)"><g id="8500" opacity="1" style="mix-blend-mode:normal"><g><g><path id="8500_fill_path" d="M29.279,16.03147c-0.3839,-1.248 -11.0396,-11.13564 -12.5755,-12.86358c-2.7839,-3.16789 -1.92,-3.16789 -5.3758,-3.16789c-3.7439,0 -7.5838,0 -11.3277,0c1.056,1.53595 4.1279,4.12786 5.5679,5.7598c0.5759,0.57598 0.67189,0.95997 1.24789,1.53595c0.48,0.47998 0.864,0.86397 1.44,1.43995l5.6638,5.66377c1.6319,1.632 0.9599,1.728 3.9358,1.728c3.7439,0 7.5838,0 11.3277,0z" fill-rule="evenodd" fill="rgb(55, 52, 53)" fill-opacity="1" style="mix-blend-mode:NORMAL"></path></g></g></g></g><g transform="matrix(1,0,0,1,660.362,30.6907)"><g id="8501" opacity="1" style="mix-blend-mode:normal"><g><g><path id="8501_fill_path" d="M28.12701,14.63082c-0.288,-1.152 -9.40799,-9.7917 -10.46399,-10.7516c-0.96,-0.96 -1.72804,-1.632 -2.59204,-2.5919c-1.632,-1.632 -1.152,-1.248 -4.224,-1.248c-3.648,0 -7.19898,0 -10.84698,0c0.288,1.152 11.42299,11.7116 13.05499,13.3435c1.632,1.632 1.152,1.248 4.224,1.248c3.648,0 7.20002,0 10.84802,0z" fill-rule="evenodd" fill="rgb(55, 52, 53)" fill-opacity="1" style="mix-blend-mode:NORMAL"></path></g></g></g></g><g transform="matrix(1,0,0,1,206.681,30.7086)"><g id="8502" opacity="1" style="mix-blend-mode:normal"><g><g><path id="8502_fill_path" d="M28.03101,14.61292c-0.288,-0.96 -4.12801,-4.5119 -5.08801,-5.4718l-7.87099,-7.8718c-1.536,-1.5359 -1.344,-1.2479 -4.224,-1.2479c-3.648,0 -7.20001,0 -10.84801,0c0.288,1.1519 9.408,9.7916 10.464,10.7516c4.512,4.5119 3.072,3.8399 6.815,3.8399c3.648,0 7.19999,0 10.84799,0z" fill-rule="evenodd" fill="rgb(55, 52, 53)" fill-opacity="1" style="mix-blend-mode:NORMAL"></path></g></g></g></g><g transform="matrix(1,0,0,1,116.828,0.491)"><g id="8503" opacity="1" style="mix-blend-mode:normal"><g><g><path id="8503_fill_path" d="M0,9.88767h23.13499v-9.88767h-12.959c-0.768,0 -2.112,1.72794 -2.688,2.30392c-1.632,1.63194 -6.816,6.52778 -7.488,7.58375z" fill-rule="evenodd" fill="rgb(55, 52, 53)" fill-opacity="1" style="mix-blend-mode:NORMAL"></path></g></g></g></g><g transform="matrix(1,0,0,1,696.552,0.491)"><g id="8504" opacity="1" style="mix-blend-mode:normal"><g><g><path id="8504_fill_path" d="M0,9.88767h22.84802v-9.88767h-12.96002c-0.768,0 -6.62398,6.23979 -7.58398,7.19975c-0.768,0.76798 -2.01602,1.63195 -2.30402,2.68792z" fill-rule="evenodd" fill="rgb(55, 52, 53)" fill-opacity="1" style="mix-blend-mode:NORMAL"></path></g></g></g></g><g transform="matrix(1,0,0,1,262.455,59.2267)"><g id="8505" opacity="1" style="mix-blend-mode:normal"><g><g><path id="8505_fill_path" d="M6.14401,9.90202h-3.552v-3.0719c3.552,0 4.70401,-0.384 4.70401,1.9199c0,0.576 -0.67201,1.152 -1.15201,1.152zM5.47202,4.71812h-2.784v-2.5919c2.016,0 4.51199,-0.384 4.51199,1.44c0,0.768 -0.86399,1.1519 -1.63199,1.1519zM0.09601,12.30192c2.688,0 8.16,0.47999 9.504,-1.82401c1.056,-1.8239 0.768,-3.5518 -1.056,-4.7998c0.864,-1.248 1.15201,-0.576 1.15201,-2.7839c0,-3.7439 -5.76001,-2.7839 -9.69601,-2.7839v12.2876z" fill-rule="evenodd" fill="rgb(55, 52, 53)" fill-opacity="1" style="mix-blend-mode:NORMAL"></path></g></g></g></g><g transform="matrix(1,0,0,1,93.1169,59.1367)"><g id="8506" opacity="1" style="mix-blend-mode:normal"><g><g><path id="8506_fill_path" d="M6.4318,5.28809h-3.5519v-3.0718h2.39989c1.248,0 2.4003,0.4799 2.4003,1.6319c0,0.576 -0.48,1.4399 -1.1523,1.4399zM0.096,11.62389c0,0.96 0.576,0.672 2.1119,0.672c1.152,0 0.672,-1.7279 0.672,-4.7038c5.6642,0 3.7439,-0.288 4.3202,3.4559c0.288,1.5359 -0.192,1.2479 3.168,1.2479c-0.288,-1.056 -0.384,-0.192 -0.48,-1.4399c-0.096,-0.576 0,-1.248 0,-1.824c-0.192,-2.0159 -0.384,-1.4399 -1.152,-2.5919c0.672,-0.96 1.44,-1.152 1.44,-2.7839c0,-4.6078 -5.2803,-3.5519 -10.1761,-3.5519v11.5196z" fill-rule="evenodd" fill="rgb(55, 52, 53)" fill-opacity="1" style="mix-blend-mode:NORMAL"></path></g></g></g></g><g transform="matrix(1,0,0,1,537.87,59.241)"><g id="8507" opacity="1" style="mix-blend-mode:normal"><g><g><path id="8507_fill_path" d="M7.104,4.8959c-1.728,0.3839 -2.40002,0.192 -4.51202,0.192v-3.0719c1.824,0 3.07202,-0.192 4.51202,0.4799c0.096,0.576 0.48,1.344 0,2.4zM0,12.1916h2.59198v-4.7038h3.26404c1.632,0 1.056,3.1679 1.44,4.7038h2.78296c-0.192,-1.7279 -0.38398,0.672 -0.47998,-3.2639c0,-2.0159 -0.479,-1.7279 -1.151,-2.7839c1.439,-0.384 1.63103,-2.3999 1.43903,-3.5519c-0.384,-1.5359 -1.82304,-2.5919 -3.07104,-2.5919h-6.81598v12.2876z" fill-rule="evenodd" fill="rgb(55, 52, 53)" fill-opacity="1" style="mix-blend-mode:NORMAL"></path></g></g></g></g><g transform="matrix(1,0,0,1,60.6699,58.8671)"><g id="8508" opacity="1" style="mix-blend-mode:normal"><g><g><path id="8508_fill_path" d="M5.6638,2.19785c4.7999,0 4.0319,8.2557 0.672,8.2557c-2.4959,0 -3.8399,-1.248 -3.7439,-4.2239c0,-0.7679 0.384,-2.1119 0.768,-2.6879c0.384,-0.576 1.44,-1.3439 2.2079,-1.3439zM0,6.42166c0,8.5437 11.8076,8.5437 11.8076,0c0,-7.6797 -8.0637,-7.4877 -10.4636,-4.5118c-0.864,1.1519 -1.344,2.5919 -1.344,4.5118z" fill-rule="evenodd" fill="rgb(55, 52, 53)" fill-opacity="1" style="mix-blend-mode:NORMAL"></path></g></g></g></g><g transform="matrix(1,0,0,1,739.367,58.9069)"><g id="8509" opacity="1" style="mix-blend-mode:normal"><g><g><path id="8509_fill_path" d="M0.28802,3.40602c0,2.016 0.67199,3.0719 2.68799,3.6479c0.96,0.288 1.53597,0.384 2.49597,0.576c0.192,0.096 0.76803,0.192 1.05603,0.288c0.768,0.288 0.57595,-0.096 0.86395,0.8639c0.288,0.384 0.28801,-0.5759 0.09601,0.672c-0.096,0.288 -0.19198,0.48 -0.47998,0.672c-0.48,0.384 -4.12802,1.344 -4.41602,-1.536h-2.59198c0.096,5.7599 10.17603,5.5679 10.17603,0.192c0,-4.7998 -7.29602,-2.5919 -7.29602,-5.3758c0,-1.4399 4.032,-2.0159 4.224,0.672h2.59198c0,-5.0878 -6.62398,-4.5118 -8.25598,-3.0719c-0.576,0.48 -1.15198,1.344 -1.15198,2.3039z" fill-rule="evenodd" fill="rgb(55, 52, 53)" fill-opacity="1" style="mix-blend-mode:NORMAL"></path></g></g></g></g><g transform="matrix(1,0,0,1,709.128,58.869)"><g id="8510" opacity="1" style="mix-blend-mode:normal"><g><g><path id="8510_fill_path" d="M0.19202,3.15594c0,3.9359 1.24798,3.4559 5.37598,4.6079c1.056,0.288 1.34399,0.48 2.01599,1.0559c-0.192,2.592 -4.896,2.40001 -4.992,-0.19189h-2.59198c0,7.0077 12.86398,4.6078 9.69598,-1.44c-1.44,-2.6879 -6.432,-1.056 -7.104,-3.7439c1.248,-1.8239 4.32002,-1.6319 4.51202,0.672h2.59198c-0.096,-5.7598 -9.40796,-4.8958 -9.40796,-0.96z" fill-rule="evenodd" fill="rgb(55, 52, 53)" fill-opacity="1" style="mix-blend-mode:NORMAL"></path></g></g></g></g><g transform="matrix(1,0,0,1,447.537,59.145)"><g id="8511" opacity="1" style="mix-blend-mode:normal"><g><g><path id="8511_fill_path" d="M0,12.2876h9.216v-2.3999h-6.62399v-3.0719c6.528,0 5.85599,0.48 5.85599,-1.632c0,-1.2479 -2.49599,-0.6719 -5.85599,-0.6719v-2.4h6.336v-2.1119h-8.92801z" fill-rule="evenodd" fill="rgb(55, 52, 53)" fill-opacity="1" style="mix-blend-mode:NORMAL"></path></g></g></g></g><g transform="matrix(1,0,0,1,292.886,58.9047)"><g id="8512" opacity="1" style="mix-blend-mode:normal"><g><g><path id="8512_fill_path" d="M0.28802,3.40823c0,5.3758 7.29599,3.4559 7.29599,5.3758c0,2.3999 -4.704,2.5919 -4.992,-0.192h-2.59201c0.096,5.9518 10.17603,5.2798 10.17603,0.48c0,-5.2798 -7.29602,-2.6879 -7.29602,-5.6638c0,-1.44 4.032,-2.0159 4.224,0.672h2.59201c0,-5.7598 -9.40799,-4.8959 -9.40799,-0.672z" fill-rule="evenodd" fill="rgb(55, 52, 53)" fill-opacity="1" style="mix-blend-mode:NORMAL"></path></g></g></g></g><g transform="matrix(1,0,0,1,0,59.0316)"><g id="8513" opacity="1" style="mix-blend-mode:normal"><g><g><path id="8513_fill_path" d="M0.28799,2.99327c0,1.92 -0.096,3.0719 2.49592,3.9359c1.15196,0.384 3.45588,0.576 4.22385,1.2479c0.47999,0.384 0.28799,-0.2879 0.47999,0.672c0.28799,1.248 -1.15196,1.632 -2.30393,1.632c-3.07189,0.096 -2.01593,-2.01601 -3.26388,-2.01601h-1.91994c0,6.0478 9.88767,4.99191 9.88767,0.96001c0,-2.1119 0.09599,-3.16791 -3.1679,-4.12791c-1.05596,-0.2879 -4.12786,-0.6719 -4.12786,-1.5359c0,-2.1119 2.8799,-1.8239 3.74388,-1.152c0.57598,0.384 0.47998,0.672 0.67197,1.44c1.43995,0 3.45584,0.576 2.01593,-2.0159c-1.72794,-3.1679 -8.8317,-2.496 -8.8317,1.0559z" fill-rule="evenodd" fill="rgb(55, 52, 53)" fill-opacity="1" style="mix-blend-mode:NORMAL"></path></g></g></g></g><g transform="matrix(1,0,0,1,677.449,59.241)"><g id="8514" opacity="1" style="mix-blend-mode:normal"><g><g><path id="8514_fill_path" d="M5.37604,3.2639h0.47998c0.096,1.536 1.05598,2.6879 1.15198,4.2239h-2.784c0.288,-1.344 1.05604,-3.0719 1.15204,-4.2239zM0,12.1916h2.112c1.344,0 0.48004,-2.5919 1.92004,-2.5919h3.26398c1.344,0 0.38398,2.5919 1.91998,2.5919h2.112c0,-1.2479 -2.39995,-7.2957 -2.97595,-9.0237c-0.288,-0.864 -0.96003,-2.3999 -1.05603,-3.1679h-3.07202c-0.864,1.536 -1.53595,4.1279 -2.20795,6.0478c-0.48,1.152 -2.01605,5.0879 -2.01605,6.2398z" fill-rule="evenodd" fill="rgb(55, 52, 53)" fill-opacity="1" style="mix-blend-mode:NORMAL"></path></g></g></g></g><g transform="matrix(1,0,0,1,568.205,59.145)"><g id="8515" opacity="1" style="mix-blend-mode:normal"><g><g><path id="8515_fill_path" d="M5.47198,3.3599c0.768,0.576 1.53602,3.1679 1.63202,4.2239h-2.784c0.096,-1.536 1.05598,-2.6879 1.15198,-4.2239zM0.09601,12.2876h2.59198c0.192,-0.768 0.57602,-1.9199 0.96002,-2.5919h4.224c0.192,0.96 0.67096,1.6319 0.67096,2.5919h2.784c-0.192,-2.0159 -3.83901,-10.4636 -4.03101,-12.2876h-3.26398c-0.096,1.536 -3.93598,10.3677 -4.03198,12.2876z" fill-rule="evenodd" fill="rgb(55, 52, 53)" fill-opacity="1" style="mix-blend-mode:NORMAL"></path></g></g></g></g><g transform="matrix(1,0,0,1,231.352,59.241)"><g id="8516" opacity="1" style="mix-blend-mode:normal"><g><g><path id="8516_fill_path" d="M0,7.9678c0,6.5277 9.696,5.1838 9.696,0.9599v-8.9277h-2.59201v8.2557c0,2.496 -4.51199,2.9759 -4.51199,-0.6719v-7.5838h-2.592z" fill-rule="evenodd" fill="rgb(55, 52, 53)" fill-opacity="1" style="mix-blend-mode:NORMAL"></path></g></g></g></g><g transform="matrix(1,0,0,1,30.719,59.0459)"><g id="8517" opacity="1" style="mix-blend-mode:normal"><g><g><path id="8517_fill_path" d="M4.9918,5.85894h-2.1119v-3.5518c2.3039,0 1.6319,0 3.7438,0.4799c0.288,1.344 0.48,3.0719 -1.6319,3.0719zM0,0.86714v10.8476c0,0.96 0.5759,0.672 2.1119,0.672c1.152,0 0.672,-1.5359 0.672,-4.5118c2.1119,0 4.1278,0.288 5.4718,-0.864c1.8239,-1.6319 1.9199,-6.9118 -2.3999,-6.9118c-3.3599,0 -5.8558,-0.4799 -5.8558,0.672z" fill-rule="evenodd" fill="rgb(55, 52, 53)" fill-opacity="1" style="mix-blend-mode:NORMAL"></path></g></g></g></g><g transform="matrix(1,0,0,1,477.104,59.241)"><g id="8518" opacity="1" style="mix-blend-mode:normal"><g><g><path id="8518_fill_path" d="M3.74399,5.8558c-0.672,0.96 -1.24798,2.016 -1.91998,2.9759c-0.48,0.768 -1.72801,2.4959 -1.82401,3.3599h2.784c0.864,-1.2479 1.92001,-3.4559 2.59201,-4.0318c0.768,1.3439 1.44,2.6879 2.112,4.0318h3.07199c-0.192,-0.864 -3.16799,-5.3758 -3.74399,-6.3358c0.672,-1.2479 3.35997,-5.0878 3.55197,-5.8558h-3.07199l-1.728,3.2639c-0.288,0.48 -0.096,0.192 -0.384,0.576c-0.288,-1.056 -1.63198,-2.6879 -1.91998,-3.7439h-3.07202c0.288,1.056 1.15202,2.112 1.63202,3.0719l1.53598,2.4959c0.384,0.576 0.00002,0 0.28802,0.384z" fill-rule="evenodd" fill="rgb(55, 52, 53)" fill-opacity="1" style="mix-blend-mode:NORMAL"></path></g></g></g></g><g transform="matrix(1,0,0,1,173.5417,58.9571)"><g id="8519" opacity="1" style="mix-blend-mode:normal"><g><g><path id="8519_fill_path" d="M5.68428,12.7635c4.224,0 6.33599,-4.7038 4.70399,-4.7038h-1.43999c-1.536,0 0,2.3999 -3.552,2.3999c-3.648,0 -3.456,-8.2558 0.192,-8.2558c1.536,0 2.304,0.864 2.592,2.112h2.784c-0.288,-0.672 -0.38399,-1.728 -1.34399,-2.8799c-1.824,-2.016 -8.064,-2.4959 -9.312,2.4959c-1.056,4.1279 0.576,8.8317 5.28,8.8317z" fill-rule="evenodd" fill="rgb(55, 52, 53)" fill-opacity="1" style="mix-blend-mode:NORMAL"></path></g></g></g></g><g transform="matrix(1,0,0,1,616.779,59.049)"><g id="8520" opacity="1" style="mix-blend-mode:normal"><g><g><path id="8520_fill_path" d="M0.09601,6.3358c0,8.8317 10.75202,7.6797 10.84802,1.6319h-2.59204c-0.864,3.8399 -5.664,2.9759 -5.664,-1.6319c0,-3.3599 2.78405,-5.4718 4.80005,-3.6479c1.536,1.44 -0.76801,1.536 3.45599,1.536c-0.096,-2.304 -2.20802,-4.2239 -4.51202,-4.2239h-1.44c-3.168,0 -4.992,3.0719 -4.992,6.3358z" fill-rule="evenodd" fill="rgb(55, 52, 53)" fill-opacity="1" style="mix-blend-mode:NORMAL"></path></g></g></g></g><g transform="matrix(1,0,0,1,123.356,59.241)"><g id="8521" opacity="1" style="mix-blend-mode:normal"><g><g><path id="8521_fill_path" d="M0,2.112h3.55199v10.0796h2.592v-10.0796h3.839v-2.112h-9.983z" fill-rule="evenodd" fill="rgb(55, 52, 53)" fill-opacity="1" style="mix-blend-mode:NORMAL"></path></g></g></g></g><g transform="matrix(1,0,0,1,507.439,59.337)"><g id="8522" opacity="1" style="mix-blend-mode:normal"><g><g><path id="8522_fill_path" d="M0,2.016h3.552v10.1756h2.59201v-9.4077c0,-1.0559 1.24802,-0.6719 3.74402,-0.6719v-2.112h-9.88803v2.112z" fill-rule="evenodd" fill="rgb(55, 52, 53)" fill-opacity="1" style="mix-blend-mode:NORMAL"></path></g></g></g></g><g transform="matrix(1,0,0,1,648.65,59.241)"><g id="8523" opacity="1" style="mix-blend-mode:normal"><g><g><path id="8523_fill_path" d="M0,12.1916h8.06396c0.576,0 0.672,-0.192 0.672,-0.672v-1.6319h-6.14398v-9.8877h-2.59198v12.2876z" fill-rule="evenodd" fill="rgb(55, 52, 53)" fill-opacity="1" style="mix-blend-mode:NORMAL"></path></g></g></g></g><g transform="matrix(1,0,0,1,202.169,59.241)"><g id="8524" opacity="1" style="mix-blend-mode:normal"><g><g><path id="8524_fill_path" d="M0,12.1916h8.448v-2.3039h-5.856v-9.8877h-2.592z" fill-rule="evenodd" fill="rgb(55, 52, 53)" fill-opacity="1" style="mix-blend-mode:NORMAL"></path></g></g></g></g></g></g></g></g><g transform="matrix(1,0,0,1,22,75)"><g id="8571" opacity="1" style="mix-blend-mode:normal"><g><g><g transform="matrix(1,0,0,1,447.7617,0)"><g id="8529" opacity="1" style="mix-blend-mode:normal"><g><g><path id="8529_fill_path" d="M4.71984,24.24992c3.84041,2.9538 6.14465,3.14437 12.67234,3.14437h23.61853c1.43915,0 2.30324,0.09529 3.16733,0.85758c1.53616,1.42921 1.8242,3.62071 0.38404,5.14531c-0.76808,0.7623 -1.05611,1.14344 -2.49627,1.23873c-5.5676,0.19047 -16.41677,0 -22.36941,0c-2.40026,0 -4.89651,0 -7.29677,0c-3.07133,0 -2.01521,-0.38115 -4.99153,2.47737c-1.24813,1.23863 -2.40027,2.38208 -3.6484,3.62071c-0.86409,0.85758 -3.36036,2.9538 -3.55238,3.90667c11.52124,0 23.13748,0 34.65872,0c7.00775,0 10.75216,0.57173 15.07263,-2.38208c7.96885,-5.24059 7.96885,-16.57936 1.05611,-21.91534c-3.45637,-2.66794 -6.43269,-3.14437 -12.38432,-3.14437h-23.33051c-3.36036,0 -4.70351,-0.7622 -4.70351,-4.19244c0,-2.1915 2.30324,-3.04909 4.22344,-3.04909h29.28214c1.8242,0 1.82422,0.28586 2.78432,-0.76228l5.66461,-5.43119c0.9601,-0.95283 2.88028,-2.66795 3.55235,-3.71607c-11.52124,0 -23.13749,0 -34.65872,0c-7.20077,0 -15.36064,-1.04812 -19.48908,6.66987c-1.05611,1.90568 -1.92019,4.38311 -1.92019,6.6699c-0.27704,5.11241 3.27562,9.75446 4.70451,10.86234z" fill-rule="evenodd" fill="rgb(254, 254, 254)" fill-opacity="1" style="mix-blend-mode:NORMAL"></path></g></g></g></g><g transform="matrix(1,0,0,1,636.0462,0.3337)"><g id="8530" opacity="1" style="mix-blend-mode:normal"><g><g><path id="8530_fill_path" d="M0,9.71898h42.43552c3.36036,0.38115 4.12847,4.76416 1.72821,6.57461c-1.53616,1.14335 -8.73696,0.66691 -10.84919,0.66691c-5.18356,0 -10.36814,0 -15.55269,0c-5.95264,0 -8.83292,0.28586 -12.3853,2.9538c-2.59228,1.90574 -5.2806,5.81232 -5.2806,10.19543v14.29257h9.88906v-13.05394c0,-1.81036 0.76813,-3.04909 1.92025,-3.716c1.53616,-0.85758 14.20951,-0.47644 16.51276,-0.47644c3.7444,0 7.58482,0 11.32922,0c4.51248,0 6.52867,-0.19057 9.50499,-1.81045c5.95264,-3.33485 9.31199,-11.33877 4.89652,-19.05674c-1.92021,-3.33494 -6.5287,-6.28874 -10.56113,-6.28874h-33.21853c-0.76808,0 -9.79307,9.33783 -10.17712,9.81427z" fill-rule="evenodd" fill="rgb(254, 254, 254)" fill-opacity="1" style="mix-blend-mode:NORMAL"></path></g></g></g></g><g transform="matrix(1,0,0,1,182.1255,0.3337)"><g id="8531" opacity="1" style="mix-blend-mode:normal"><g><g><path id="8531_fill_path" d="M0,9.71898c2.20824,0 41.66647,-0.19057 42.81859,0.09529c3.07233,0.7622 3.6484,4.76416 1.34415,6.47933c-0.9601,0.66691 -1.53617,0.66691 -3.07234,0.66691h-23.3295c-6.04865,0 -8.73595,0.28586 -12.38434,2.9538c-2.59228,1.90574 -5.28057,5.71703 -5.28057,10.19543v14.29257h9.88807v-13.05394c0,-1.81036 0.57606,-2.85851 1.72818,-3.62071c1.24813,-0.7623 3.16834,-0.57172 5.08854,-0.57172h22.65844c6.71972,0 11.90428,-1.14345 15.07262,-7.52748c2.11223,-4.09715 2.20823,-9.05198 -0.38404,-13.14915c-0.86409,-1.42926 -1.44015,-1.90567 -2.59227,-3.04908c-1.53616,-1.52454 -4.89653,-3.43022 -7.87285,-3.43022h-33.50659c-0.76708,0 -9.79205,9.33783 -10.17609,9.81427z" fill-rule="evenodd" fill="rgb(254, 254, 254)" fill-opacity="1" style="mix-blend-mode:NORMAL"></path></g></g></g></g><g transform="matrix(1,0,0,1,511.8107,0.1431)"><g id="8532" opacity="1" style="mix-blend-mode:normal"><g><g><path id="8532_fill_path" d="M2.7875,9.90954h40.13027c1.92021,0 4.60847,-0.19058 5.37655,2.66794c0.57606,2.09622 -0.76808,4.28772 -2.78429,4.57359h-24.28959c-6.5287,0 -9.60103,-0.38115 -14.11351,1.90574c-8.92796,4.76416 -6.91175,15.81707 -6.91175,25.15491c1.05611,-0.28586 7.10378,-6.76519 8.44793,-8.00382c1.63217,-1.61988 1.72815,-0.95287 1.72815,-3.90667c-0.09601,-5.05002 1.63219,-5.14531 5.85665,-5.14531h22.3694c6.62471,0 12.67339,0.66701 17.28188,-5.14531c7.4888,-9.33784 -0.09605,-22.01061 -9.69708,-22.01061h-33.21852c-0.76808,0 -9.79204,9.33782 -10.17608,9.81426z" fill-rule="evenodd" fill="rgb(254, 254, 254)" fill-opacity="1" style="mix-blend-mode:NORMAL"></path></g></g></g></g><g transform="matrix(1,0,0,1,571.4323,0.1431)"><g id="8533" opacity="1" style="mix-blend-mode:normal"><g><g><path id="8533_fill_path" d="M17.66688,9.90954c4.12844,0 21.69731,-0.28586 24.96166,0c2.68829,0.19057 3.55238,2.47736 3.55238,4.95473v15.24544c0,2.1915 -1.24811,4.4783 -3.26433,4.4783h-29.6662c-3.7444,0 -3.07235,-5.33588 -3.07235,-7.05095c0,-3.33495 0,-6.6699 0,-10.10014c-1.05611,0.28586 -1.92019,1.52459 -2.68828,2.28679c-0.9591,0.95287 -7.4878,7.05105 -7.4878,7.81335c0,3.62081 -0.09598,5.05002 1.05614,8.48026c1.8242,5.33588 7.48776,8.57554 13.34439,8.57554h27.84203c7.77683,0 13.92147,-6.47933 13.92147,-13.05394v-18.00857c0,-4.3831 -2.30423,-8.19445 -4.8005,-10.19542c-2.97632,-2.57267 -6.2407,-3.33494 -11.71329,-3.33494h-11.80827c-0.76808,0 -6.72071,6.28874 -7.68082,7.33686c-0.76808,0.76227 -2.11219,1.71511 -2.40022,2.76326z" fill-rule="evenodd" fill="rgb(254, 254, 254)" fill-opacity="1" style="mix-blend-mode:NORMAL"></path></g></g></g></g><g transform="matrix(1,0,0,1,60.7724,0.2384)"><g id="8534" opacity="1" style="mix-blend-mode:normal"><g><g><path id="8534_fill_path" d="M0.19202,44.49757h13.44104c1.63207,0 1.34404,0.28586 3.7442,-1.90564c0.57606,-0.57172 0.8641,-0.85759 1.44016,-1.33402l11.80887,-10.29061c1.15212,0.28586 4.12834,3.81129 5.08834,4.95473c2.11223,2.38208 4.32077,4.00196 6.14496,6.28875c2.30325,2.85851 2.59128,2.28679 5.47159,2.28679c3.45637,0 6.91274,0 10.36911,0c-1.53616,-2.1915 -10.84917,-10.86234 -14.59357,-15.05487c-1.34314,-1.52449 -3.93582,-3.52552 -4.99193,-5.05002l11.13659,-9.81428c1.8242,-1.61978 1.82419,-1.42921 1.82419,-2.85851c0,-0.7622 0,-1.61978 0,-2.38207c0,-3.14437 0,-6.19346 0,-9.33782c-1.05611,0.28585 -2.49627,2.00096 -3.26435,2.57267l-3.16834,2.66795c-1.92021,1.90567 -7.39209,6.2887 -9.60033,8.28973c-3.7442,3.52543 -11.42483,9.71889 -14.30504,12.48212c-3.45627,3.33495 -12.86487,10.76715 -15.9371,13.91152c-0.67207,0.66691 -1.05612,0.7622 -1.63218,1.42921c-1.05601,1.04816 -2.40016,1.90575 -3.16824,2.9538z" fill-rule="evenodd" fill="rgb(254, 254, 254)" fill-opacity="1" style="mix-blend-mode:NORMAL"></path></g></g></g></g><g transform="matrix(1,0,0,1,243.0587,17.2941)"><g id="8535" opacity="1" style="mix-blend-mode:normal"><g><g><path id="8535_fill_path" d="M14.23985,27.4418h17.47389c0.76808,0 2.11221,-1.71507 2.68827,-2.28679c1.15212,-1.14345 7.19977,-6.76519 7.4878,-7.81335h-26.20981c-1.63217,0 -2.68828,0.19057 -3.64839,-0.57162c-2.68829,-1.90574 -1.53616,-6.09818 1.34415,-6.6699c1.15212,-0.19057 18.14593,0 21.41028,0c1.44015,0 1.34414,-0.28586 2.01621,-1.04816c1.05611,-1.04806 2.01523,-2.00093 3.07134,-3.04909l4.6085,-4.57358c0.38404,-0.38115 1.8242,-1.42931 0.38404,-1.42931h-29.47417c-8.35189,0 -14.68858,4.28782 -15.36065,13.24451c-0.28803,3.43024 1.44016,7.62267 3.93643,10.10004c2.59228,2.57275 6.43169,4.00196 10.36812,4.00196z" fill-rule="evenodd" fill="rgb(254, 254, 254)" fill-opacity="1" style="mix-blend-mode:NORMAL"></path></g></g></g></g><g transform="matrix(1,0,0,1,13.921,0.429)"><g id="8536" opacity="1" style="mix-blend-mode:normal"><g><g><path id="8536_fill_path" d="M3.84031,9.62369h25.92188c1.92021,0 3.45627,-0.28586 4.80041,1.61978c1.53606,2.1916 0.19192,5.05012 -1.82419,5.62174c-1.05601,0.28586 -18.43338,0.09529 -21.40959,0.09529c-1.34404,0 -1.53607,0.09529 -2.30415,0.7623c-1.34404,1.23873 -8.73663,8.28968 -9.02467,9.33784c9.69674,0 19.29747,0 28.99411,0c6.14446,0 7.87264,-0.38115 11.52093,-3.04909c2.30415,-1.71507 4.99234,-5.62174 4.99234,-9.52842c0,-4.4783 -0.57607,-7.24155 -3.93633,-10.57649c-2.01612,-2.00096 -5.28037,-3.90664 -8.35259,-3.90664h-19.5854c-0.76808,0 -2.11223,1.71511 -2.68819,2.28682l-4.99243,4.95476c-0.76808,0.76227 -2.01612,1.61982 -2.30415,2.66797z" fill-rule="evenodd" fill="rgb(254, 254, 254)" fill-opacity="1" style="mix-blend-mode:NORMAL"></path></g></g></g></g><g transform="matrix(1,0,0,1,721.8774,0.0478)"><g id="8537" opacity="1" style="mix-blend-mode:normal"><g><g><path id="8537_fill_path" d="M0,13.81613v30.87203h9.40799c0.86409,0 0.76809,-0.7623 0.76809,-1.61988v-26.48893c0,-1.52449 -0.19199,-3.43014 0.38407,-4.57358c0.48005,-0.95287 1.7282,-2.00093 2.97633,-2.00093h19.58608v-9.33785c0,-0.5717 -0.19202,-0.66699 -0.67207,-0.66699h-16.0337c-6.81673,0 -12.28935,2.09625 -14.88062,7.718c-0.76808,1.61982 -1.44016,3.71605 -1.44016,6.09813z" fill-rule="evenodd" fill="rgb(254, 254, 254)" fill-opacity="1" style="mix-blend-mode:NORMAL"></path></g></g></g></g><g transform="matrix(1,0,0,1,142.1863,0.1431)"><g id="8538" opacity="1" style="mix-blend-mode:normal"><g><g><path id="8538_fill_path" d="M0.096,12.76806v31.82481h9.88906v-30.87194c0,-2.09632 1.63218,-3.7161 3.7444,-3.7161h19.29707v-9.33784c0,-0.57171 -0.19202,-0.66699 -0.67207,-0.66699h-15.8407c-5.08855,0 -8.64093,0.76227 -11.52124,3.14437c-2.30425,1.90568 -4.99252,5.62175 -4.99252,9.71898z" fill-rule="evenodd" fill="rgb(254, 254, 254)" fill-opacity="1" style="mix-blend-mode:NORMAL"></path></g></g></g></g><g transform="matrix(1,0,0,1,0.2845,17.58)"><g id="8539" opacity="1" style="mix-blend-mode:normal"><g><g><path id="8539_fill_path" d="M0.00356,9.81428c0,5.33588 -0.28802,9.43303 4.32031,13.53028c2.5922,2.38208 5.66438,3.81138 9.6007,3.81138h29.95421c0.76808,0 6.72052,-6.28875 7.68052,-7.33691c0.76808,-0.7622 2.11223,-1.71507 2.40026,-2.76322c-1.8242,0 -40.51504,0.28586 -41.76308,-0.19058c-0.86409,-0.28586 -1.63217,-1.14335 -2.01622,-2.00093c-0.76802,-1.81036 -0.28803,-11.91049 -0.28803,-14.8643c-1.05603,0.28586 -6.43243,6.00289 -7.58451,7.24162c-0.48003,0.47634 -2.30417,1.90564 -2.30417,2.66794z" fill-rule="evenodd" fill="rgb(254, 254, 254)" fill-opacity="1" style="mix-blend-mode:NORMAL"></path></g></g></g></g><g transform="matrix(1,0,0,1,248.2746,0.2384)"><g id="8540" opacity="1" style="mix-blend-mode:normal"><g><g><path id="8540_fill_path" d="M0.096,9.81425h38.21009c1.24813,0 2.59228,-0.09529 3.55238,0.28586c0.86409,0.38115 1.6322,0.95287 2.01624,2.00093c0.9601,2.38208 0.38404,11.62463 0.38404,15.05487c1.05611,-0.66701 5.95261,-5.81232 7.48878,-7.33681c2.88031,-2.85861 2.40028,-1.33402 2.40028,-6.47933c0,-7.2416 -6.43271,-13.33977 -12.28934,-13.33977h-31.87442c-0.76808,0 -2.11221,1.71511 -2.68828,2.28681c-0.86409,0.85755 -1.63218,1.61982 -2.49627,2.47739c-0.86409,0.85755 -1.63117,1.61982 -2.49526,2.47738c-0.76808,0.76228 -2.01622,1.61983 -2.30425,2.66796z" fill-rule="evenodd" fill="rgb(254, 254, 254)" fill-opacity="1" style="mix-blend-mode:NORMAL"></path></g></g></g></g><g transform="matrix(1,0,0,1,60.8684,0.2384)"><g id="8541" opacity="1" style="mix-blend-mode:normal"><g><g><path id="8541_fill_path" d="M29.28214,15.91243c-0.38394,-1.23873 -11.04078,-11.05295 -12.57685,-12.76806c-2.7842,-3.14437 -1.92021,-3.14437 -5.37638,-3.14437c-3.7443,0 -7.58461,0 -11.32891,0c1.05611,1.52455 4.12834,4.09721 5.5685,5.71703c0.57596,0.5717 0.67197,0.95284 1.24803,1.52454c0.48005,0.47642 0.8641,0.85755 1.44016,1.42926l5.66441,5.62171c1.63207,1.61988 0.96,1.71517 3.93622,1.71517c3.7443,0 7.58461,0 11.32891,0z" fill-rule="evenodd" fill="rgb(254, 254, 254)" fill-opacity="1" style="mix-blend-mode:NORMAL"></path></g></g></g></g><g transform="matrix(1,0,0,1,660.4328,30.2138)"><g id="8542" opacity="1" style="mix-blend-mode:normal"><g><g><path id="8542_fill_path" d="M28.13003,14.52218c-0.28803,-1.14345 -9.409,-9.71899 -10.46511,-10.67176c-0.9601,-0.95287 -1.72823,-1.61988 -2.59232,-2.57265c-1.63217,-1.61988 -1.15212,-1.23873 -4.22445,-1.23873c-3.64839,0 -7.19976,0 -10.84815,0c0.28803,1.14345 11.42422,11.62463 13.05639,13.24442c1.63217,1.61988 1.15212,1.23873 4.22445,1.23873c3.64839,0 7.20079,0 10.84918,0z" fill-rule="evenodd" fill="rgb(254, 254, 254)" fill-opacity="1" style="mix-blend-mode:NORMAL"></path></g></g></g></g><g transform="matrix(1,0,0,1,206.7032,30.2315)"><g id="8543" opacity="1" style="mix-blend-mode:normal"><g><g><path id="8543_fill_path" d="M28.03401,14.50441c-0.28803,-0.95287 -4.12846,-4.47839 -5.08856,-5.43117l-7.87183,-7.81335c-1.53616,-1.52449 -1.34414,-1.23863 -4.22445,-1.23863c-3.64839,0 -7.20078,0 -10.84917,0c0.28803,1.14335 9.40901,9.71889 10.46513,10.67176c4.51248,4.4784 3.07233,3.81138 6.81573,3.81138c3.64839,0 7.20076,0 10.84915,0z" fill-rule="evenodd" fill="rgb(254, 254, 254)" fill-opacity="1" style="mix-blend-mode:NORMAL"></path></g></g></g></g><g transform="matrix(1,0,0,1,116.8405,0.2384)"><g id="8544" opacity="1" style="mix-blend-mode:normal"><g><g><path id="8544_fill_path" d="M0,9.81425h23.13748v-9.81425h-12.96039c-0.76808,0 -2.11222,1.71511 -2.68828,2.28681c-1.63218,1.61982 -6.81673,6.47931 -7.4888,7.52744z" fill-rule="evenodd" fill="rgb(254, 254, 254)" fill-opacity="1" style="mix-blend-mode:NORMAL"></path></g></g></g></g><g transform="matrix(1,0,0,1,696.6266,0.2384)"><g id="8545" opacity="1" style="mix-blend-mode:normal"><g><g><path id="8545_fill_path" d="M0,9.81425h22.85047v-9.81425h-12.96141c-0.76808,0 -6.62469,6.19346 -7.5848,7.14629c-0.76808,0.76228 -2.01623,1.61983 -2.30426,2.66796z" fill-rule="evenodd" fill="rgb(254, 254, 254)" fill-opacity="1" style="mix-blend-mode:NORMAL"></path></g></g></g></g><g transform="matrix(1,0,0,1,262.4831,58.5379)"><g id="8546" opacity="1" style="mix-blend-mode:normal"><g><g><path id="8546_fill_path" d="M6.14467,9.82849h-3.55238v-3.04909c3.55238,0 4.70451,-0.38115 4.70451,1.90564c0,0.57172 -0.67208,1.14345 -1.15213,1.14345zM5.4726,4.68308h-2.7843v-2.57265c2.01622,0 4.51248,-0.38115 4.51248,1.42931c0,0.7623 -0.86408,1.14335 -1.63216,1.14335zM0.09602,12.21057c2.68829,0 8.16087,0.47643 9.50502,-1.81046c1.05611,-1.81036 0.76808,-3.52542 -1.05611,-4.76416c0.86409,-1.23873 1.15213,-0.57172 1.15213,-2.76323c0,-3.7161 -5.76063,-2.76322 -9.69705,-2.76322v12.19636z" fill-rule="evenodd" fill="rgb(254, 254, 254)" fill-opacity="1" style="mix-blend-mode:NORMAL"></path></g></g></g></g><g transform="matrix(1,0,0,1,93.1269,58.4486)"><g id="8547" opacity="1" style="mix-blend-mode:normal"><g><g><path id="8547_fill_path" d="M6.43249,5.24882h-3.55228v-3.04899h2.40015c1.24813,0 2.40056,0.47634 2.40056,1.61978c0,0.57172 -0.48005,1.4292 -1.15242,1.4292zM0.09601,11.53757c0,0.95287 0.57606,0.66701 2.11213,0.66701c1.15212,0 0.67208,-1.71507 0.67208,-4.66887c5.66481,0 3.7443,-0.28586 4.32066,3.43024c0.28803,1.52449 -0.19202,1.23864 3.16834,1.23864c-0.28803,-1.04816 -0.38404,-0.19058 -0.48005,-1.42921c-0.09601,-0.57172 0,-1.23873 0,-1.81045c-0.19202,-2.00093 -0.38404,-1.42921 -1.15212,-2.57266c0.67207,-0.95287 1.44016,-1.14344 1.44016,-2.76322c0,-4.57358 -5.28087,-3.52552 -10.17719,-3.52552v11.43405z" fill-rule="evenodd" fill="rgb(254, 254, 254)" fill-opacity="1" style="mix-blend-mode:NORMAL"></path></g></g></g></g><g transform="matrix(1,0,0,1,537.9277,58.5521)"><g id="8548" opacity="1" style="mix-blend-mode:normal"><g><g><path id="8548_fill_path" d="M7.10477,4.85954c-1.72819,0.38105 -2.40028,0.19058 -4.51251,0.19058v-3.04909c1.8242,0 3.07235,-0.19057 4.51251,0.47634c0.09601,0.57172 0.48005,1.33402 0,2.38218zM0,12.10107h2.59226v-4.66887h3.26439c1.63217,0 1.05612,3.14438 1.44016,4.66887h2.78326c-0.19202,-1.71507 -0.38402,0.66701 -0.48003,-3.23966c0,-2.00093 -0.47905,-1.71507 -1.15112,-2.76322c1.43915,-0.38115 1.6312,-2.38208 1.43918,-3.52553c-0.38404,-1.52449 -1.82324,-2.57265 -3.07137,-2.57265h-6.81671v12.19636z" fill-rule="evenodd" fill="rgb(254, 254, 254)" fill-opacity="1" style="mix-blend-mode:NORMAL"></path></g></g></g></g><g transform="matrix(1,0,0,1,60.6764,58.181)"><g id="8549" opacity="1" style="mix-blend-mode:normal"><g><g><path id="8549_fill_path" d="M5.66441,2.18153c4.80041,0 4.03233,8.1944 0.67207,8.1944c-2.49617,0 -3.84031,-1.23873 -3.7443,-4.19253c0,-0.7622 0.38404,-2.09622 0.76808,-2.66794c0.38404,-0.57172 1.44016,-1.33392 2.20814,-1.33392zM0,6.37397c0,8.48026 11.80887,8.48026 11.80887,0c0,-7.62267 -8.06456,-7.4321 -10.46472,-4.4783c-0.86409,1.14335 -1.34415,2.57266 -1.34415,4.4783z" fill-rule="evenodd" fill="rgb(254, 254, 254)" fill-opacity="1" style="mix-blend-mode:NORMAL"></path></g></g></g></g><g transform="matrix(1,0,0,1,739.4463,58.2204)"><g id="8550" opacity="1" style="mix-blend-mode:normal"><g><g><path id="8550_fill_path" d="M0.28806,3.38072c0,2.00103 0.67206,3.04909 2.68828,3.62081c0.9601,0.28586 1.53614,0.38114 2.49624,0.57172c0.19202,0.09529 0.76811,0.19058 1.05614,0.28586c0.76808,0.28586 0.57601,-0.09529 0.86405,0.85748c0.28803,0.38115 0.28804,-0.57162 0.09602,0.66701c-0.09601,0.28586 -0.192,0.47643 -0.48003,0.66701c-0.48005,0.38115 -4.12846,1.33402 -4.41649,-1.5246h-2.59226c0.09601,5.71713 10.17712,5.52656 10.17712,0.19058c0,-4.76416 -7.2968,-2.57265 -7.2968,-5.33588c0,-1.42921 4.03243,-2.00093 4.22445,0.66701h2.59226c0,-5.05002 -6.62469,-4.4783 -8.25687,-3.04909c-0.57606,0.47644 -1.1521,1.33402 -1.1521,2.28679z" fill-rule="evenodd" fill="rgb(254, 254, 254)" fill-opacity="1" style="mix-blend-mode:NORMAL"></path></g></g></g></g><g transform="matrix(1,0,0,1,709.204,58.1828)"><g id="8551" opacity="1" style="mix-blend-mode:normal"><g><g><path id="8551_fill_path" d="M0.19204,3.1325c0,3.90667 1.24811,3.43024 5.37655,4.57368c1.05611,0.28586 1.34414,0.47644 2.01621,1.04806c-0.19202,2.57275 -4.89653,2.38218 -4.99254,-0.19047h-2.59226c0,6.95566 12.86536,4.57358 9.69702,-1.42931c-1.44015,-2.66794 -6.43269,-1.04816 -7.10477,-3.7161c1.24813,-1.81036 4.32049,-1.61978 4.51251,0.66701h2.59226c-0.09601,-5.71703 -9.40897,-4.85945 -9.40897,-0.95287z" fill-rule="evenodd" fill="rgb(254, 254, 254)" fill-opacity="1" style="mix-blend-mode:NORMAL"></path></g></g></g></g><g transform="matrix(1,0,0,1,447.585,58.4568)"><g id="8552" opacity="1" style="mix-blend-mode:normal"><g><g><path id="8552_fill_path" d="M0,12.19636h9.21699v-2.38208h-6.6247v-3.04909c6.5287,0 5.85662,0.47643 5.85662,-1.61988c0,-1.23863 -2.49626,-0.66691 -5.85662,-0.66691v-2.38218h6.33668v-2.09622h-8.92897z" fill-rule="evenodd" fill="rgb(254, 254, 254)" fill-opacity="1" style="mix-blend-mode:NORMAL"></path></g></g></g></g><g transform="matrix(1,0,0,1,292.9174,58.2183)"><g id="8553" opacity="1" style="mix-blend-mode:normal"><g><g><path id="8553_fill_path" d="M0.28806,3.38292c0,5.33588 7.29677,3.43023 7.29677,5.33588c0,2.38208 -4.70451,2.57265 -4.99254,-0.19058h-2.59229c0.09601,5.9076 10.17712,5.2406 10.17712,0.47644c0,-5.24059 -7.2968,-2.66794 -7.2968,-5.62174c0,-1.42931 4.03243,-2.00093 4.22445,0.66701h2.59229c0,-5.71703 -9.409,-4.85954 -9.409,-0.66701z" fill-rule="evenodd" fill="rgb(254, 254, 254)" fill-opacity="1" style="mix-blend-mode:NORMAL"></path></g></g></g></g><g transform="matrix(1,0,0,1,0,58.3443)"><g id="8554" opacity="1" style="mix-blend-mode:normal"><g><g><path id="8554_fill_path" d="M0.28802,2.97104c0,1.90574 -0.09601,3.04909 2.49619,3.90667c1.15208,0.38115 3.45625,0.57172 4.2243,1.23864c0.48004,0.38115 0.28802,-0.28577 0.48004,0.66701c0.28802,1.23873 -1.15208,1.61988 -2.30418,1.61988c-3.07222,0.09529 -2.01615,-2.00104 -3.26423,-2.00104h-1.92015c0,6.00289 9.88873,4.95484 9.88873,0.95288c0,-2.09622 0.096,-3.14438 -3.16824,-4.09725c-1.05607,-0.28576 -4.1283,-0.66691 -4.1283,-1.52449c0,-2.09622 2.88021,-1.81036 3.74428,-1.14345c0.57604,0.38115 0.48003,0.66701 0.67204,1.42931c1.4401,0 3.45621,0.57172 2.01615,-2.00093c-1.72813,-3.14438 -8.83264,-2.47746 -8.83264,1.04806z" fill-rule="evenodd" fill="rgb(254, 254, 254)" fill-opacity="1" style="mix-blend-mode:NORMAL"></path></g></g></g></g><g transform="matrix(1,0,0,1,677.5216,58.5521)"><g id="8555" opacity="1" style="mix-blend-mode:normal"><g><g><path id="8555_fill_path" d="M5.37661,3.23966h0.48003c0.09601,1.52459 1.05609,2.66794 1.1521,4.19253h-2.78429c0.28803,-1.33402 1.05615,-3.04908 1.15216,-4.19253zM0,12.10107h2.11223c1.34414,0 0.4801,-2.57266 1.92025,-2.57266h3.26433c1.34414,0 0.38402,2.57266 1.92019,2.57266h2.11223c0,-1.23863 -2.40021,-7.24152 -2.97627,-8.95669c-0.28803,-0.85758 -0.96013,-2.38208 -1.05614,-3.14438h-3.07235c-0.86409,1.52459 -1.53611,4.09725 -2.20818,6.00289c-0.48005,1.14345 -2.01627,5.05012 -2.01627,6.19346z" fill-rule="evenodd" fill="rgb(254, 254, 254)" fill-opacity="1" style="mix-blend-mode:NORMAL"></path></g></g></g></g><g transform="matrix(1,0,0,1,568.2659,58.4568)"><g id="8556" opacity="1" style="mix-blend-mode:normal"><g><g><path id="8556_fill_path" d="M5.47257,3.33495c0.76808,0.57172 1.53618,3.14437 1.63219,4.19253h-2.7843c0.09601,-1.52459 1.05609,-2.66794 1.1521,-4.19253zM0.09602,12.19636h2.59226c0.19202,-0.7623 0.57608,-1.90565 0.96012,-2.57266h4.22445c0.19202,0.95287 0.67103,1.61979 0.67103,2.57266h2.7843c-0.19202,-2.00093 -3.83942,-10.3859 -4.03144,-12.19636h-3.26433c-0.09601,1.52459 -3.9364,10.29071 -4.03241,12.19636z" fill-rule="evenodd" fill="rgb(254, 254, 254)" fill-opacity="1" style="mix-blend-mode:NORMAL"></path></g></g></g></g><g transform="matrix(1,0,0,1,231.3768,58.5521)"><g id="8557" opacity="1" style="mix-blend-mode:normal"><g><g><path id="8557_fill_path" d="M0,7.90863c0,6.47923 9.69704,5.14531 9.69704,0.95277v-8.86141h-2.59229v8.19439c0,2.47747 -4.51248,2.9538 -4.51248,-0.66691v-7.52748h-2.59227z" fill-rule="evenodd" fill="rgb(254, 254, 254)" fill-opacity="1" style="mix-blend-mode:NORMAL"></path></g></g></g></g><g transform="matrix(1,0,0,1,30.7223,58.3584)"><g id="8558" opacity="1" style="mix-blend-mode:normal"><g><g><path id="8558_fill_path" d="M4.99234,5.81543h-2.11213v-3.52542c2.30415,0 1.63208,0 3.7442,0.47634c0.28803,1.33402 0.48005,3.04909 -1.63208,3.04909zM0,0.8607v10.76705c0,0.95287 0.57596,0.66701 2.11212,0.66701c1.15212,0 0.67207,-1.5245 0.67207,-4.4783c2.11213,0 4.12824,0.28586 5.47239,-0.85758c1.8241,-1.61978 1.9201,-6.86048 -2.40016,-6.86048c-3.36026,0 -5.85643,-0.47634 -5.85643,0.66701z" fill-rule="evenodd" fill="rgb(254, 254, 254)" fill-opacity="1" style="mix-blend-mode:NORMAL"></path></g></g></g></g><g transform="matrix(1,0,0,1,477.1552,58.5521)"><g id="8559" opacity="1" style="mix-blend-mode:normal"><g><g><path id="8559_fill_path" d="M3.74439,5.81232c-0.67207,0.95287 -1.24812,2.00103 -1.92019,2.9538c-0.48005,0.7623 -1.72819,2.47737 -1.8242,3.33495h2.7843c0.86409,-1.23863 1.92022,-3.43024 2.59229,-4.00186c0.76808,1.33392 1.44015,2.66794 2.11223,4.00186h3.07232c-0.19202,-0.85758 -3.16833,-5.33588 -3.74439,-6.28875c0.67207,-1.23863 3.36033,-5.05002 3.55235,-5.81232h-3.07232l-1.72818,3.23966c-0.28803,0.47644 -0.09601,0.19057 -0.38404,0.57172c-0.28803,-1.04816 -1.63216,-2.66794 -1.92019,-3.7161h-3.07235c0.28803,1.04816 1.15214,2.09632 1.63219,3.04909l1.53614,2.47737c0.38404,0.57172 0.00002,0 0.28806,0.38115z" fill-rule="evenodd" fill="rgb(254, 254, 254)" fill-opacity="1" style="mix-blend-mode:NORMAL"></path></g></g></g></g><g transform="matrix(1,0,0,1,173.5603,58.2703)"><g id="8560" opacity="1" style="mix-blend-mode:normal"><g><g><path id="8560_fill_path" d="M5.68489,12.66872c4.22445,0 6.33667,-4.66887 4.7045,-4.66887h-1.44014c-1.53616,0 0,2.38208 -3.55238,2.38208c-3.64839,0 -3.45637,-8.1945 0.19202,-8.1945c1.53616,0 2.30424,0.85758 2.59227,2.09632h2.7843c-0.28803,-0.66701 -0.38404,-1.71517 -1.34414,-2.85851c-1.8242,-2.00103 -8.06486,-2.47737 -9.313,2.47737c-1.05611,4.09725 0.57606,8.76611 5.28057,8.76611z" fill-rule="evenodd" fill="rgb(254, 254, 254)" fill-opacity="1" style="mix-blend-mode:NORMAL"></path></g></g></g></g><g transform="matrix(1,0,0,1,616.8451,58.3615)"><g id="8561" opacity="1" style="mix-blend-mode:normal"><g><g><path id="8561_fill_path" d="M0.09602,6.28876c0,8.76612 10.75318,7.62267 10.84919,1.61978h-2.59232c-0.86409,3.81139 -5.66461,2.9538 -5.66461,-1.61978c0,-3.33495 2.78435,-5.43117 4.80056,-3.62081c1.53616,1.42931 -0.76809,1.52459 3.45636,1.52459c-0.09601,-2.28689 -2.20826,-4.19253 -4.51251,-4.19253h-1.44016c-3.16834,0 -4.99254,3.04909 -4.99254,6.28876z" fill-rule="evenodd" fill="rgb(254, 254, 254)" fill-opacity="1" style="mix-blend-mode:NORMAL"></path></g></g></g></g><g transform="matrix(1,0,0,1,123.3692,58.5521)"><g id="8562" opacity="1" style="mix-blend-mode:normal"><g><g><path id="8562_fill_path" d="M0,2.09632h3.55238v10.00475h2.59228v-10.00475h3.83942v-2.09632h-9.98407z" fill-rule="evenodd" fill="rgb(254, 254, 254)" fill-opacity="1" style="mix-blend-mode:NORMAL"></path></g></g></g></g><g transform="matrix(1,0,0,1,507.4934,58.6474)"><g id="8563" opacity="1" style="mix-blend-mode:normal"><g><g><path id="8563_fill_path" d="M0,2.00103h3.55238v10.10004h2.59229v-9.33784c0,-1.04806 1.24815,-0.66691 3.74442,-0.66691v-2.09632h-9.88909v2.09632z" fill-rule="evenodd" fill="rgb(254, 254, 254)" fill-opacity="1" style="mix-blend-mode:NORMAL"></path></g></g></g></g><g transform="matrix(1,0,0,1,648.7195,58.5521)"><g id="8564" opacity="1" style="mix-blend-mode:normal"><g><g><path id="8564_fill_path" d="M0,12.10107h8.06483c0.57606,0 0.67207,-0.19058 0.67207,-0.66701v-1.61978h-6.14464v-9.81428h-2.59226v12.19636z" fill-rule="evenodd" fill="rgb(254, 254, 254)" fill-opacity="1" style="mix-blend-mode:NORMAL"></path></g></g></g></g><g transform="matrix(1,0,0,1,202.1907,58.5521)"><g id="8565" opacity="1" style="mix-blend-mode:normal"><g><g><path id="8565_fill_path" d="M0,12.10107h8.4489v-2.28679h-5.85663v-9.81428h-2.59227z" fill-rule="evenodd" fill="rgb(254, 254, 254)" fill-opacity="1" style="mix-blend-mode:NORMAL"></path></g></g></g></g></g></g></g></g></g></g></g></g><g transform="matrix(1,0,0,1,342,28)"><g id="8566" opacity="1" style="mix-blend-mode:normal"><g><g><g transform="matrix(1,0,0,1,5,4)"><g id="8527" opacity="1" style="mix-blend-mode:normal"><g><g><g transform="matrix(1,0,0,1,0,0)"><g id="5484" opacity="1" style="mix-blend-mode:normal"><g><g><path id="5484_fill_path" d="M58,116c32.0325,0 58,-25.9675 58,-58c0,-32.0325 -25.9675,-58 -58,-58c-32.0325,0 -58,25.9675 -58,58c0,32.0325 25.9675,58 58,58zM59.5,96c21.263,0 38.5,-17.237 38.5,-38.5c0,-21.263 -17.237,-38.5 -38.5,-38.5c-21.263,0 -38.5,17.237 -38.5,38.5c0,21.263 17.237,38.5 38.5,38.5z" fill-rule="evenodd" fill="rgb(55, 52, 53)" fill-opacity="1" style="mix-blend-mode:NORMAL"></path></g></g></g></g></g></g></g></g><g transform="matrix(1,0,0,1,28,35)"><g id="2158" opacity="1" style="mix-blend-mode:normal"><g><defs><clipPath id="2158_clipPath" x="-50%" y="-50%" width="200%" height="200%"><path d="M0,46v-46h60v46z" fill="white" clip-rule="nonzero"></path></clipPath></defs><g clip-path="url(#2158_clipPath)"><g transform="matrix(1,0,0,1,1,0)"><g id="2155" opacity="1" style="mix-blend-mode:normal"><g><g><g style="mix-blend-mode:normal"><defs><radialGradient id="li8xq8kp047858821243376815" fx="-6.513323707369585" fy="-0.9407133762096453" fr="0" cx="-6.513323707369585" cy="-0.9407133762096453" r="75.16383031993917" gradientUnits="userSpaceOnUse"><stop offset="0%" stop-opacity="1" stop-color="rgb(255, 255, 255)"></stop><stop offset="100%" stop-opacity="1" stop-color="rgb(245, 107, 63)"></stop></radialGradient></defs><path id="2155_fill_path" d="M14.28578,14.55102c0,-1.29617 1.27914,-2.34694 2.85713,-2.34694h29.5237l13.33338,-12.20408h-45.71412v0.0318c-7.44577,0.49913 -13.33338,6.80881 -13.33338,14.51922c0,8.03629 6.39588,14.55102 14.28566,14.55102h27.61895c1.57799,0 2.85713,1.05077 2.85713,2.34694c0,1.29617 -1.27914,2.34694 -2.85713,2.34694h-29.52371l-13.3334,12.20408h45.71415v-0.03183c7.44578,-0.49915 13.33338,-6.80875 13.33338,-14.51919c0,-8.03629 -6.39588,-14.55102 -14.28566,-14.55102h-27.61895c-1.57799,0 -2.85713,-1.05077 -2.85713,-2.34694z" fill-rule="evenodd" fill="url(#li8xq8kp047858821243376815)"></path></g></g></g></g></g><g transform="matrix(1,0,0,1,0,0)"><g id="2159" opacity="1" style="mix-blend-mode:normal"><g><g><g style="mix-blend-mode:normal"><defs><radialGradient id="li8xq8lj5309710845047069" fx="-6.513323707369585" fy="-0.9407133762096453" fr="0" cx="-6.513323707369585" cy="-0.9407133762096453" r="75.16383031993917" gradientUnits="userSpaceOnUse"><stop offset="0%" stop-opacity="1" stop-color="rgb(255, 255, 255)"></stop><stop offset="100%" stop-opacity="1" stop-color="rgb(245, 107, 63)"></stop></radialGradient></defs><path id="2159_fill_path" d="M14.2858,31.449c0,1.2961 1.2791,2.3469 2.8571,2.3469h29.5237l13.3334,12.2041h-45.7141v-0.0318c-7.4458,-0.4991 -13.33341,-6.8088 -13.33341,-14.5192c0,-8.0363 6.39589,-14.551 14.28571,-14.551h27.6189c1.578,0 2.8571,-1.0508 2.8571,-2.347c0,-1.2961 -1.2791,-2.3469 -2.8571,-2.3469h-29.5237l-13.3334,-12.2041h45.7141v0.03183c7.4458,0.49915 13.3334,6.80874 13.3334,14.51917c0,8.0363 -6.3959,14.551 -14.2856,14.551h-27.619c-1.578,0 -2.8571,1.0508 -2.8571,2.347z" fill-rule="evenodd" fill="url(#li8xq8lj5309710845047069)"></path></g></g></g></g></g></g></g></g></g><g transform="matrix(1,0,0,1,0,0)"><g id="8568" opacity="1" style="mix-blend-mode:normal"><g><g><g style="mix-blend-mode:normal"><defs><radialGradient id="li8xq8mp7613682786597524" fx="41.021737012583756" fy="42.89755389418951" fr="0" cx="41.021737012583756" cy="42.89755389418951" r="66.86479590539942" gradientUnits="userSpaceOnUse"><stop offset="0%" stop-opacity="1" stop-color="rgb(255, 255, 255)"></stop><stop offset="100%" stop-opacity="1" stop-color="rgb(245, 107, 63)"></stop></radialGradient></defs><path id="8568_fill_path" d="M58,116c32.0325,0 58,-25.9675 58,-58c0,-32.0325 -25.9675,-58 -58,-58c-32.0325,0 -58,25.9675 -58,58c0,32.0325 25.9675,58 58,58zM58.5,96c21.263,0 38.5,-17.237 38.5,-38.5c0,-21.263 -17.237,-38.5 -38.5,-38.5c-21.263,0 -38.5,17.237 -38.5,38.5c0,21.263 17.237,38.5 38.5,38.5z" fill-rule="evenodd" fill="url(#li8xq8mp7613682786597524)"></path></g></g></g></g></g></g></g></g></g></g></g></g></g><animateTransform href="#8487" attributeName="transform" type="rotate" values="0 377.5 36;0 377.5 36;6 377.5 36;-6 377.5 36;3 377.5 36;-3 377.5 36;0 377.5 36;0 377.5 36" dur="4s" repeatCount="indefinite" calcMode="spline" keyTimes="0;0.09;0.17;0.25;0.32;0.4;0.47;1" keySplines="0 1 0.5 1;0 1 0.7372 0.6624;0 1 0.7372 0.6624;0 1 0.7372 0.6624;0 1 0.7372 0.6624;0 1 0.7372 0.6624;0.5 0 0.7372 0.6624" additive="sum" fill="freeze"></animateTransform><animateTransform href="#8571" attributeName="transform" type="rotate" values="0 377.5 35.5;0 377.5 35.5;6 377.5 35.5;-6 377.5 35.5;3 377.5 35.5;-3 377.5 35.5;0 377.5 35.5;0 377.5 35.5" dur="4s" repeatCount="indefinite" calcMode="spline" keyTimes="0;0.01;0.09;0.16;0.24;0.31;0.39;1" keySplines="0 1 0.5 1;0 1 0.7372 0.6624;0 1 0.7372 0.6624;0 1 0.7372 0.6624;0 1 0.7372 0.6624;0 1 0.7372 0.6624;0.5 0 0.7372 0.6624" additive="sum" fill="freeze"></animateTransform><animateTransform href="#2155" attributeName="transform" type="translate" values="30 23;30 23;30 23;30 23;30 23" dur="4s" repeatCount="indefinite" calcMode="spline" keyTimes="0;0.08;0.18;0.25;1" keySplines="0.5 0.35 0.15 1;0.5 0.35 0.15 1;0.5 0.35 0.15 1;0.5 0.35 0.15 1" additive="sum" fill="freeze"></animateTransform><animateTransform href="#2155" attributeName="transform" type="scale" values="0 1;0 1;1 1;0 1;0 1" dur="4s" repeatCount="indefinite" calcMode="spline" keyTimes="0;0.08;0.18;0.25;1" keySplines="0.5 0.35 0.15 1;0.5 0.35 0.15 1;0.5 0.35 0.15 1;0.5 0.35 0.15 1" additive="sum" fill="freeze"></animateTransform><animateTransform href="#2155" attributeName="transform" type="translate" values="-30 -23;-30 -23;-30 -23;-30 -23;-30 -23" dur="4s" repeatCount="indefinite" calcMode="spline" keyTimes="0;0.08;0.18;0.25;1" keySplines="0.5 0.35 0.15 1;0.5 0.35 0.15 1;0.5 0.35 0.15 1;0.5 0.35 0.15 1" additive="sum" fill="freeze"></animateTransform><animateTransform href="#2159" attributeName="transform" type="translate" values="30 23;30 23;30 23;30 23;30 23" dur="4s" repeatCount="indefinite" calcMode="spline" keyTimes="0;0.08;0.25;0.35;1" keySplines="0.5 0.35 0.15 1;0.5 0.35 0.15 1;0.5 0.35 0.15 1;0.5 0.35 0.15 1" additive="sum" fill="freeze"></animateTransform><animateTransform href="#2159" attributeName="transform" type="scale" values="1 1;0 1;0 1;1 1;1 1" dur="4s" repeatCount="indefinite" calcMode="spline" keyTimes="0;0.08;0.25;0.35;1" keySplines="0.5 0.35 0.15 1;0.5 0.35 0.15 1;0.5 0.35 0.15 1;0.5 0.35 0.15 1" additive="sum" fill="freeze"></animateTransform><animateTransform href="#2159" attributeName="transform" type="translate" values="-30 -23;-30 -23;-30 -23;-30 -23;-30 -23" dur="4s" repeatCount="indefinite" calcMode="spline" keyTimes="0;0.08;0.25;0.35;1" keySplines="0.5 0.35 0.15 1;0.5 0.35 0.15 1;0.5 0.35 0.15 1;0.5 0.35 0.15 1" additive="sum" fill="freeze"></animateTransform><animateTransform href="#8568" attributeName="transform" type="rotate" values="0 58 58;360 58 58;360 58 58" dur="4s" repeatCount="indefinite" calcMode="spline" keyTimes="0;0.2;1" keySplines="0.5 0.25 0.5 0.75;0 0 0.5 0.75" additive="sum" fill="freeze"></animateTransform></svg>