<?xml version="1.0" encoding="utf-8"?>
<!-- Generator: Adobe Illustrator 23.0.2, SVG Export Plug-In . SVG Version: 6.00 Build 0)  -->
<svg version="1.1" id="Layer_1" xmlns="http://www.w3.org/2000/svg" xmlns:xlink="http://www.w3.org/1999/xlink" x="0px" y="0px"
	 viewBox="0 0 50 61" style="enable-background:new 0 0 50 61;" xml:space="preserve">
<style type="text/css">
	.st0{fill:#5FB426;stroke:#5FB426;stroke-width:0.75;stroke-miterlimit:10;}
</style>
<path class="st0" d="M45.28,10.32c-0.49-2.66-2.56-4.63-5.02-4.92l-6.2-1.97c-0.79-0.59-4.04-2.56-7.97-2.56S19,2.84,18.11,3.43
	L9.84,5.3C7.28,5.7,5.12,7.67,4.72,10.32c-1.57,8.76-4.33,24.51-4.33,31.3c0,0.69,0.59,1.28,1.28,1.28h9.55l-1.08,13.48
	c-0.1,0.59,0.3,1.18,0.89,1.28c0.39,0.1,9.45,2.56,15.16,2.56c5.61,0,14.76-2.36,15.16-2.56c0.59-0.2,0.98-0.69,0.89-1.28
	L41.04,42.8h7.28c0.69,0,1.28-0.59,1.28-1.28C49.61,34.54,46.56,17.41,45.28,10.32z M32.09,5.11l-5.91,17.81L20.28,5.11
	c1.08-0.69,3.35-1.77,5.91-1.77C28.74,3.33,30.91,4.42,32.09,5.11z M38.29,37.88l0.1,2.46h-6.1v-2.46H38.29z M29.82,41.62
	c0,0.69-0.59,1.28-1.28,1.28c-0.69,0-1.28-0.59-1.28-1.28V36.7c0-0.69,0.59-1.28,1.28-1.28s1.28,0.59,1.28,1.28V41.62z M24.9,41.62
	v4.92c0,0.69-0.59,1.28-1.28,1.28c-0.69,0-1.28-0.59-1.28-1.28V36.7c0-0.69,0.59-1.28,1.28-1.28c0.69,0,1.28,0.59,1.28,1.28V41.62z
	 M13.98,37.88h6v2.46h-6.1L13.98,37.88z M7.09,10.72c0.3-1.57,1.57-2.76,3.25-3.05l7.58-1.67l6.89,20.77l-2.07,6.3
	c-1.18,0.3-2.17,1.18-2.56,2.36h-6.1l0.89-15.94c0-0.69-0.49-1.28-1.18-1.28s-1.28,0.49-1.28,1.18l-1.18,21.06H2.85
	C3.15,32.96,5.91,17.31,7.09,10.72z M13.68,42.8h6.3v3.74c0,1.57,1.08,2.95,2.46,3.44v7.38c-3.74-0.49-7.97-1.48-9.84-1.87
	L13.68,42.8z M26.08,57.67c-0.39,0-0.79,0-1.28,0v-7.58c1.48-0.49,2.46-1.87,2.46-3.44v-1.48c0.39,0.1,0.79,0.2,1.28,0.2
	c1.57,0,2.95-1.08,3.44-2.46h6.5l1.08,12.7C37.11,56.09,30.41,57.67,26.08,57.67z M40.85,40.34l-1.18-21.06
	c0-0.69-0.59-1.18-1.28-1.18s-1.18,0.59-1.18,1.28l0.89,15.94h-6.1c-0.39-1.28-1.77-2.36-3.44-2.36c-0.98,0-1.77,0.39-2.46,0.98
	c-0.3-0.2-0.59-0.39-0.89-0.59l9.06-27.26l5.41,1.67c1.57,0.2,2.85,1.48,3.15,2.95c1.18,6.59,3.94,22.15,4.23,29.63H40.85z"/>
</svg>
